<svg width="1759" height="915" viewBox="0 0 1759 915" fill="none" xmlns="http://www.w3.org/2000/svg">
    <path d="M1697.59 820.201H1701.26L1708.68 832.729L1716.2 820.201H1719.73L1710.23 836.113V845.437H1707.09V836.113L1697.59 820.201ZM1727.96 845.653C1726.18 845.653 1724.6 845.257 1723.21 844.465C1721.84 843.673 1720.77 842.569 1720 841.153C1719.23 839.737 1718.85 838.105 1718.85 836.257C1718.85 834.409 1719.23 832.777 1720 831.361C1720.77 829.945 1721.84 828.841 1723.21 828.049C1724.6 827.257 1726.18 826.861 1727.96 826.861C1729.73 826.861 1731.31 827.257 1732.67 828.049C1734.07 828.841 1735.15 829.945 1735.91 831.361C1736.68 832.777 1737.07 834.409 1737.07 836.257C1737.07 838.105 1736.68 839.737 1735.91 841.153C1735.15 842.569 1734.07 843.673 1732.67 844.465C1731.31 845.257 1729.73 845.653 1727.96 845.653ZM1727.96 843.025C1729.16 843.025 1730.21 842.737 1731.13 842.161C1732.06 841.585 1732.78 840.781 1733.29 839.749C1733.79 838.717 1734.04 837.553 1734.04 836.257C1734.04 834.961 1733.79 833.797 1733.29 832.765C1732.78 831.733 1732.06 830.929 1731.13 830.353C1730.21 829.777 1729.16 829.489 1727.96 829.489C1726.76 829.489 1725.69 829.777 1724.75 830.353C1723.84 830.929 1723.13 831.733 1722.63 832.765C1722.13 833.797 1721.87 834.961 1721.87 836.257C1721.87 837.553 1722.13 838.717 1722.63 839.749C1723.13 840.781 1723.84 841.585 1724.75 842.161C1725.69 842.737 1726.76 843.025 1727.96 843.025ZM1756.25 827.077V845.437H1753.7L1753.3 842.989C1751.91 844.765 1749.95 845.653 1747.43 845.653C1745.25 845.653 1743.5 844.981 1742.18 843.637C1740.86 842.293 1740.2 840.181 1740.2 837.301V827.077H1743.15V837.121C1743.15 839.017 1743.56 840.469 1744.37 841.477C1745.21 842.461 1746.4 842.953 1747.94 842.953C1749.62 842.953 1750.93 842.353 1751.86 841.153C1752.82 839.953 1753.3 838.321 1753.3 836.257V827.077H1756.25Z" fill="#4C4D5D"/>
    <path d="M1037.97 723.917C1036.4 723.444 1035.14 722.8 1034.21 722.004L1035.62 718.835C1036.52 719.548 1037.62 720.123 1038.94 720.581C1040.25 721.04 1041.57 721.258 1042.89 721.258C1044.52 721.258 1045.74 721.003 1046.55 720.479C1047.36 719.955 1047.75 719.26 1047.75 718.413C1047.75 717.787 1047.53 717.259 1047.08 716.852C1046.62 716.444 1046.06 716.124 1045.37 715.888C1044.67 715.651 1043.74 715.397 1042.54 715.109C1040.86 714.72 1039.5 714.312 1038.47 713.923C1037.44 713.534 1036.54 712.908 1035.79 712.06C1035.05 711.213 1034.67 710.059 1034.67 708.619C1034.67 707.4 1034.99 706.297 1035.66 705.297C1036.32 704.296 1037.32 703.518 1038.64 702.925C1039.98 702.332 1041.6 702.044 1043.52 702.044C1044.86 702.044 1046.18 702.215 1047.48 702.554C1048.79 702.892 1049.91 703.369 1050.84 703.994L1049.55 707.163C1048.59 706.603 1047.59 706.163 1046.53 705.875C1045.48 705.588 1044.47 705.435 1043.49 705.435C1041.88 705.435 1040.67 705.708 1039.89 706.25C1039.12 706.792 1038.71 707.52 1038.71 708.418C1038.71 709.044 1038.93 709.554 1039.39 709.961C1039.84 710.369 1040.4 710.674 1041.1 710.911C1041.79 711.147 1042.72 711.402 1043.93 711.689C1045.55 712.06 1046.91 712.453 1047.94 712.875C1048.99 713.283 1049.89 713.909 1050.64 714.738C1051.38 715.568 1051.76 716.703 1051.76 718.129C1051.76 719.348 1051.44 720.45 1050.77 721.432C1050.11 722.415 1049.11 723.193 1047.78 723.786C1046.44 724.379 1044.79 724.667 1042.88 724.667C1041.2 724.649 1039.57 724.394 1037.98 723.921L1037.97 723.917Z" fill="black"/>
    <path d="M1070.56 703.259C1071.97 703.885 1073.05 704.784 1073.81 705.97C1074.58 707.138 1074.95 708.528 1074.95 710.154C1074.95 711.78 1074.58 713.137 1073.81 714.323C1073.05 715.509 1071.98 716.408 1070.56 717.034C1069.15 717.66 1067.49 717.983 1065.58 717.983H1060.61V724.339H1056.53V702.324H1065.58C1067.48 702.324 1069.14 702.63 1070.56 703.256L1070.56 703.259ZM1069.44 713.392C1070.36 712.628 1070.83 711.562 1070.83 710.154C1070.83 708.746 1070.38 707.662 1069.44 706.916C1068.53 706.152 1067.17 705.781 1065.4 705.781H1060.61V714.509H1065.4C1067.17 714.509 1068.53 714.138 1069.44 713.392Z" fill="black"/>
    <path d="M1091.53 719.239H1080.53L1078.36 724.321H1074.14L1084.03 702.324H1088.05L1097.98 724.321H1093.71L1091.53 719.239ZM1090.17 716.019L1086.02 706.392L1081.9 716.019H1090.17Z" fill="black"/>
    <path d="M1115.35 724.321L1110.86 717.882C1110.68 717.9 1110.39 717.914 1110.01 717.914H1105.05V724.321H1100.96V702.324H1110.01C1111.91 702.324 1113.59 702.645 1114.99 703.274C1116.4 703.9 1117.48 704.798 1118.24 705.984C1119.01 707.152 1119.38 708.542 1119.38 710.168C1119.38 711.795 1118.97 713.254 1118.18 714.44C1117.36 715.626 1116.21 716.524 1114.7 717.117L1119.77 724.354H1115.34V724.321H1115.35ZM1113.88 706.916C1112.96 706.152 1111.61 705.781 1109.83 705.781H1105.05V714.542H1109.83C1111.61 714.542 1112.97 714.152 1113.88 713.388C1114.79 712.624 1115.27 711.54 1115.27 710.136C1115.27 708.746 1114.81 707.662 1113.88 706.916Z" fill="black"/>
    <path d="M1131.86 715.12L1128.36 718.696V724.321H1124.28V702.324H1128.36V713.61L1139.24 702.324H1143.83L1134.59 712.155L1144.41 724.321H1139.63L1131.85 715.12H1131.86Z" fill="black"/>
    <path d="M1003.25 730.783L986.373 711.143C986.056 710.776 986.485 710.245 986.911 710.478L998.262 716.637C998.797 716.928 999.212 717.405 999.423 717.976L1003.99 730.346C1004.16 730.801 1003.57 731.15 1003.25 730.783Z" fill="url(#paint0_linear_9104_25247)"/>
    <path d="M1005.69 726.268L1001.03 703.245C1000.97 702.903 1001.03 702.543 1001.22 702.248L1009.35 689.529C1009.51 689.274 1009.91 689.409 1009.88 689.714L1006.26 726.239C1006.23 726.57 1005.76 726.591 1005.69 726.268Z" fill="url(#paint1_linear_9104_25247)"/>
    <path d="M1009.72 719.486L1018.66 706.487C1018.96 706.043 1019.5 705.813 1020.03 705.893L1025.75 706.759C1026.11 706.814 1026.24 707.283 1025.95 707.513L1010.17 719.908C1009.89 720.126 1009.52 719.781 1009.72 719.49V719.486Z" fill="url(#paint2_linear_9104_25247)"/>
    <path d="M1011.06 710.572L1015.63 681.681C1015.68 681.383 1016.09 681.346 1016.19 681.634L1020.24 693.436C1020.36 693.789 1020.33 694.175 1020.16 694.506L1011.6 710.754C1011.45 711.042 1011.01 710.896 1011.06 710.576V710.572Z" fill="url(#paint3_linear_9104_25247)"/>
    <path d="M991.47 704.871L992.492 697.613C992.536 697.315 992.943 697.26 993.063 697.536L999.369 712.231C999.496 712.53 999.125 712.788 998.888 712.566L991.852 705.963C991.554 705.682 991.408 705.271 991.466 704.868L991.47 704.871Z" fill="url(#paint4_linear_9104_25247)"/>
    <path d="M690.265 301.937C690.265 200.592 772.197 118.437 873.265 118.437" stroke="#EDEFF2" stroke-width="90" stroke-linecap="round"/>
    <path d="M4.36546 557.257V578.437H0.264648V553.833C0.264648 551.86 2.5187 550.735 4.09518 551.922L23.5741 566.58C24.1746 567.032 24.5278 567.74 24.5278 568.492V578.437H20.427V569.344L4.36546 557.257Z" fill="#1AAB9B"/>
    <path d="M70.5007 555.199C68.8911 555.199 67.5863 556.503 67.5863 558.113V576.539H71.3707V560.575L76.4728 568.901C77.0538 569.849 78.0855 570.426 79.1975 570.426C80.3064 570.426 81.3364 569.851 81.918 568.907L87.0492 560.575V576.539H90.8335V557.978C90.8335 556.443 89.5896 555.199 88.0545 555.199C87.069 555.199 86.1569 555.721 85.658 556.571L79.2699 567.453L73.0233 556.654C72.5025 555.753 71.5409 555.199 70.5007 555.199Z" fill="#1AAB9B"/>
    <path fill-rule="evenodd" clip-rule="evenodd" d="M108.312 555.199C107.061 555.199 105.938 555.962 105.477 557.125L97.7851 576.539H101.449L103.837 570.952H112.547L114.935 576.539H118.825L111.147 557.126C110.687 555.963 109.563 555.199 108.312 555.199ZM108.192 559.569L111.226 567.483H105.144L108.192 559.569Z" fill="#1AAB9B"/>
    <path d="M129.065 564.975L138.295 555.702C138.616 555.38 139.052 555.199 139.507 555.199C141.032 555.199 141.794 557.044 140.713 558.12L133.39 565.411L144.188 576.539H139.277L129.065 566.206V576.539H125.28V557.091C125.28 556.046 126.128 555.199 127.173 555.199C128.218 555.199 129.065 556.046 129.065 557.091V564.975Z" fill="#1AAB9B"/>
    <path d="M150.884 573.121C150.884 575.009 152.414 576.539 154.301 576.539H164.114C165.076 576.539 165.856 575.759 165.856 574.797C165.856 573.834 165.076 573.055 164.114 573.055H154.683V567.288H163.288C164.25 567.288 165.03 566.508 165.03 565.546C165.03 564.584 164.25 563.804 163.288 563.804H154.683V558.683H164.114C165.076 558.683 165.856 557.903 165.856 556.941C165.856 555.979 165.076 555.199 164.114 555.199H154.301C152.414 555.199 150.884 556.729 150.884 558.616V573.121Z" fill="#1AAB9B"/>
    <path fill-rule="evenodd" clip-rule="evenodd" d="M191.009 561.311C191.009 561.992 190.924 562.642 190.754 563.263C190.594 563.874 190.333 564.464 189.973 565.035C189.622 565.606 189.137 566.116 188.516 566.567C187.905 567.017 187.179 567.368 186.338 567.618L192.781 576.539H187.855L181.878 568.264H178.259V576.539H174.475V558.616C174.475 556.729 176.005 555.199 177.892 555.199H183.56C184.011 555.199 184.421 555.214 184.792 555.244C185.172 555.264 185.628 555.324 186.158 555.424C186.699 555.514 187.175 555.639 187.585 555.799C188.005 555.959 188.436 556.195 188.876 556.505C189.327 556.815 189.698 557.181 189.988 557.601C190.288 558.012 190.534 558.537 190.724 559.178C190.914 559.809 191.009 560.52 191.009 561.311ZM178.259 558.668V564.78H181.743C182.344 564.78 182.875 564.76 183.335 564.72C183.796 564.68 184.271 564.6 184.762 564.479C185.252 564.349 185.653 564.174 185.963 563.954C186.283 563.734 186.544 563.428 186.744 563.038C186.954 562.647 187.059 562.187 187.059 561.656C187.059 559.664 185.523 558.668 182.449 558.668H178.259Z" fill="#1AAB9B"/>
    <path d="M47.7657 578.437V557.257L31.7042 569.344V578.437H27.6034V568.492C27.6034 567.74 27.9566 567.032 28.5572 566.58L48.0361 551.922C49.6125 550.735 51.8666 551.86 51.8666 553.833V578.437H47.7657Z" fill="#1AAB9B"/>
    <path d="M272.265 522.437C247.412 522.437 227.265 542.584 227.265 567.437C227.265 592.289 247.412 612.437 272.265 612.437V522.437ZM505.836 356.651L465.83 336.048L505.836 356.651ZM425.202 513.222L385.195 492.618L425.202 513.222ZM272.265 612.437H336.299V522.437H272.265V612.437ZM465.208 533.825L545.842 377.255L465.83 336.048L385.195 492.618L465.208 533.825ZM594.739 347.437H704.265V257.437H594.739V347.437ZM545.842 377.255C555.272 358.944 574.142 347.437 594.739 347.437V257.437C540.439 257.437 490.691 287.774 465.83 336.048L545.842 377.255ZM336.299 612.437C390.598 612.437 440.347 582.099 465.208 533.825L385.195 492.618C375.765 510.929 356.895 522.437 336.299 522.437V612.437Z" fill="#63D1C5"/>
    <path d="M272.265 613.437C247.412 613.437 227.265 593.289 227.265 568.437C227.265 543.584 247.412 523.437 272.265 523.437V613.437ZM272.265 523.437H336.299V613.437H272.265V523.437ZM465.208 602.048L545.842 758.618L465.83 799.825L385.195 643.255L465.208 602.048ZM594.739 788.437H1071.26V878.437H594.739V788.437ZM545.842 758.618C555.272 776.929 574.142 788.437 594.739 788.437V878.437C540.439 878.437 490.691 848.099 465.83 799.825L545.842 758.618ZM336.299 523.437C390.598 523.437 440.347 553.774 465.208 602.048L385.195 643.255C375.765 624.944 356.895 613.437 336.299 613.437V523.437Z" fill="#63D1C5"/>
    <rect x="227.265" y="522.437" width="90" height="90" rx="45" fill="#1AAB9B"/>
    <path d="M272.765 602.437C291.818 602.437 307.265 586.99 307.265 567.937C307.265 548.883 291.818 533.437 272.765 533.437C253.711 533.437 238.265 548.883 238.265 567.937C238.265 586.99 253.711 602.437 272.765 602.437Z" fill="#FBB62B"/>
    <path d="M293.223 562.244H289.129C286.875 555.988 280.814 551.699 272.822 551.699H259.677V562.244H255.112V566.028H259.677V569.995H255.112V573.779H259.677V584.198H272.822C280.722 584.198 286.737 579.943 289.048 573.779H293.223V569.995H289.968C290.049 569.328 290.095 568.638 290.095 567.948V567.856C290.095 567.235 290.06 566.626 290.003 566.028H293.234V562.244H293.223ZM263.357 555.068H272.822C278.687 555.068 283.045 557.955 285.058 562.233H263.357V555.068V555.068ZM272.822 580.794H263.357V573.767H285.035C283.011 577.976 278.664 580.794 272.822 580.794ZM286.288 568.029C286.288 568.696 286.242 569.351 286.15 569.984H263.357V566.016H286.162C286.242 566.637 286.288 567.281 286.288 567.937V568.029Z" fill="white"/>
    <rect x="992.265" y="760.437" width="150" height="146" rx="73" stroke="#FFA900" stroke-width="16"/>
    <path d="M1616.26 833.437L1067.26 833.437" stroke="#63D1C5" stroke-width="90"/>
    <rect x="1572.26" y="788.437" width="90" height="90" rx="45" fill="#1AAB9B"/>
    <path d="M1335.09 11.2365H1342.54C1345.14 11.2365 1347.38 11.7645 1349.28 12.8205C1351.2 13.8525 1352.66 15.3165 1353.67 17.2125C1354.7 19.1085 1355.22 21.3165 1355.22 23.8365C1355.22 26.3325 1354.7 28.5405 1353.67 30.4605C1352.66 32.3565 1351.2 33.8325 1349.28 34.8885C1347.38 35.9205 1345.14 36.4365 1342.54 36.4365H1335.09V11.2365ZM1342.54 33.5565C1345.54 33.5565 1347.87 32.6805 1349.53 30.9285C1351.18 29.1765 1352.01 26.8125 1352.01 23.8365C1352.01 20.8365 1351.18 18.4725 1349.53 16.7445C1347.9 14.9925 1345.57 14.1165 1342.54 14.1165H1338.22V33.5565H1342.54ZM1358.09 27.2565C1358.09 25.3845 1358.45 23.7405 1359.17 22.3245C1359.92 20.9085 1360.95 19.8165 1362.27 19.0485C1363.59 18.2565 1365.1 17.8605 1366.81 17.8605C1368.49 17.8605 1369.97 18.2085 1371.27 18.9045C1372.57 19.6005 1373.59 20.6085 1374.33 21.9285C1375.07 23.2485 1375.47 24.7965 1375.52 26.5725C1375.52 26.8365 1375.49 27.2565 1375.45 27.8325H1361.19V28.0845C1361.24 29.8845 1361.79 31.3245 1362.85 32.4045C1363.9 33.4845 1365.28 34.0245 1366.99 34.0245C1368.31 34.0245 1369.42 33.7005 1370.33 33.0525C1371.27 32.3805 1371.89 31.4565 1372.21 30.2805H1375.19C1374.83 32.1525 1373.93 33.6885 1372.49 34.8885C1371.05 36.0645 1369.29 36.6525 1367.2 36.6525C1365.38 36.6525 1363.78 36.2685 1362.41 35.5005C1361.05 34.7085 1359.98 33.6045 1359.21 32.1885C1358.47 30.7485 1358.09 29.1045 1358.09 27.2565ZM1372.46 25.3845C1372.31 23.8245 1371.73 22.6125 1370.69 21.7485C1369.69 20.8845 1368.4 20.4525 1366.84 20.4525C1365.45 20.4525 1364.23 20.9085 1363.17 21.8205C1362.11 22.7325 1361.51 23.9205 1361.37 25.3845H1372.46ZM1379.32 11.2365H1394.98V14.1165H1382.45V22.5405H1392.82V25.4205H1382.45V36.4365H1379.32V11.2365ZM1399.38 10.9845C1399.93 10.9845 1400.39 11.1645 1400.75 11.5245C1401.11 11.8845 1401.29 12.3405 1401.29 12.8925C1401.29 13.4445 1401.11 13.9005 1400.75 14.2605C1400.39 14.6205 1399.93 14.8005 1399.38 14.8005C1398.83 14.8005 1398.37 14.6205 1398.01 14.2605C1397.65 13.9005 1397.47 13.4445 1397.47 12.8925C1397.47 12.3405 1397.65 11.8845 1398.01 11.5245C1398.37 11.1645 1398.83 10.9845 1399.38 10.9845ZM1397.91 18.0765H1400.86V36.4365H1397.91V18.0765Z" fill="black"/>
    <path d="M1335.09 570.237H1342.54C1345.14 570.237 1347.38 570.765 1349.28 571.821C1351.2 572.853 1352.66 574.317 1353.67 576.213C1354.7 578.109 1355.22 580.317 1355.22 582.837C1355.22 585.333 1354.7 587.541 1353.67 589.461C1352.66 591.357 1351.2 592.833 1349.28 593.889C1347.38 594.921 1345.14 595.437 1342.54 595.437H1335.09V570.237ZM1342.54 592.557C1345.54 592.557 1347.87 591.681 1349.53 589.929C1351.18 588.177 1352.01 585.813 1352.01 582.837C1352.01 579.837 1351.18 577.473 1349.53 575.745C1347.9 573.993 1345.57 573.117 1342.54 573.117H1338.22V592.557H1342.54ZM1358.09 586.257C1358.09 584.385 1358.45 582.741 1359.17 581.325C1359.92 579.909 1360.95 578.817 1362.27 578.049C1363.59 577.257 1365.1 576.861 1366.81 576.861C1368.49 576.861 1369.97 577.209 1371.27 577.905C1372.57 578.601 1373.59 579.609 1374.33 580.929C1375.07 582.249 1375.47 583.797 1375.52 585.573C1375.52 585.837 1375.49 586.257 1375.45 586.833H1361.19V587.085C1361.24 588.885 1361.79 590.325 1362.85 591.405C1363.9 592.485 1365.28 593.025 1366.99 593.025C1368.31 593.025 1369.42 592.701 1370.33 592.053C1371.27 591.381 1371.89 590.457 1372.21 589.281H1375.19C1374.83 591.153 1373.93 592.689 1372.49 593.889C1371.05 595.065 1369.29 595.653 1367.2 595.653C1365.38 595.653 1363.78 595.269 1362.41 594.501C1361.05 593.709 1359.98 592.605 1359.21 591.189C1358.47 589.749 1358.09 588.105 1358.09 586.257ZM1372.46 584.385C1372.31 582.825 1371.73 581.613 1370.69 580.749C1369.69 579.885 1368.4 579.453 1366.84 579.453C1365.45 579.453 1364.23 579.909 1363.17 580.821C1362.11 581.733 1361.51 582.921 1361.37 584.385H1372.46ZM1379.32 570.237H1394.98V573.117H1382.45V581.541H1392.82V584.421H1382.45V595.437H1379.32V570.237ZM1399.38 569.985C1399.93 569.985 1400.39 570.165 1400.75 570.525C1401.11 570.885 1401.29 571.341 1401.29 571.893C1401.29 572.445 1401.11 572.901 1400.75 573.261C1400.39 573.621 1399.93 573.801 1399.38 573.801C1398.83 573.801 1398.37 573.621 1398.01 573.261C1397.65 572.901 1397.47 572.445 1397.47 571.893C1397.47 571.341 1397.65 570.885 1398.01 570.525C1398.37 570.165 1398.83 569.985 1399.38 569.985ZM1397.91 577.077H1400.86V595.437H1397.91V577.077Z" fill="#4C4D5D"/>
    <path d="M1100.09 11.2365H1107.54C1110.14 11.2365 1112.38 11.7645 1114.28 12.8205C1116.2 13.8525 1117.66 15.3165 1118.67 17.2125C1119.7 19.1085 1120.22 21.3165 1120.22 23.8365C1120.22 26.3325 1119.7 28.5405 1118.67 30.4605C1117.66 32.3565 1116.2 33.8325 1114.28 34.8885C1112.38 35.9205 1110.14 36.4365 1107.54 36.4365H1100.09V11.2365ZM1107.54 33.5565C1110.54 33.5565 1112.87 32.6805 1114.53 30.9285C1116.18 29.1765 1117.01 26.8125 1117.01 23.8365C1117.01 20.8365 1116.18 18.4725 1114.53 16.7445C1112.9 14.9925 1110.57 14.1165 1107.54 14.1165H1103.22V33.5565H1107.54ZM1123.09 27.2565C1123.09 25.3845 1123.45 23.7405 1124.17 22.3245C1124.92 20.9085 1125.95 19.8165 1127.27 19.0485C1128.59 18.2565 1130.1 17.8605 1131.81 17.8605C1133.49 17.8605 1134.97 18.2085 1136.27 18.9045C1137.57 19.6005 1138.59 20.6085 1139.33 21.9285C1140.07 23.2485 1140.47 24.7965 1140.52 26.5725C1140.52 26.8365 1140.49 27.2565 1140.45 27.8325H1126.19V28.0845C1126.24 29.8845 1126.79 31.3245 1127.85 32.4045C1128.9 33.4845 1130.28 34.0245 1131.99 34.0245C1133.31 34.0245 1134.42 33.7005 1135.33 33.0525C1136.27 32.3805 1136.89 31.4565 1137.21 30.2805H1140.19C1139.83 32.1525 1138.93 33.6885 1137.49 34.8885C1136.05 36.0645 1134.29 36.6525 1132.2 36.6525C1130.38 36.6525 1128.78 36.2685 1127.41 35.5005C1126.05 34.7085 1124.98 33.6045 1124.21 32.1885C1123.47 30.7485 1123.09 29.1045 1123.09 27.2565ZM1137.46 25.3845C1137.31 23.8245 1136.73 22.6125 1135.69 21.7485C1134.69 20.8845 1133.4 20.4525 1131.84 20.4525C1130.45 20.4525 1129.23 20.9085 1128.17 21.8205C1127.11 22.7325 1126.51 23.9205 1126.37 25.3845H1137.46ZM1144.32 11.2365H1159.98V14.1165H1147.45V22.5405H1157.82V25.4205H1147.45V36.4365H1144.32V11.2365ZM1164.38 10.9845C1164.93 10.9845 1165.39 11.1645 1165.75 11.5245C1166.11 11.8845 1166.29 12.3405 1166.29 12.8925C1166.29 13.4445 1166.11 13.9005 1165.75 14.2605C1165.39 14.6205 1164.93 14.8005 1164.38 14.8005C1163.83 14.8005 1163.37 14.6205 1163.01 14.2605C1162.65 13.9005 1162.47 13.4445 1162.47 12.8925C1162.47 12.3405 1162.65 11.8845 1163.01 11.5245C1163.37 11.1645 1163.83 10.9845 1164.38 10.9845ZM1162.91 18.0765H1165.86V36.4365H1162.91V18.0765Z" fill="#4C4D5D"/>
    <path d="M1100.09 570.237H1107.54C1110.14 570.237 1112.38 570.765 1114.28 571.821C1116.2 572.853 1117.66 574.317 1118.67 576.213C1119.7 578.109 1120.22 580.317 1120.22 582.837C1120.22 585.333 1119.7 587.541 1118.67 589.461C1117.66 591.357 1116.2 592.833 1114.28 593.889C1112.38 594.921 1110.14 595.437 1107.54 595.437H1100.09V570.237ZM1107.54 592.557C1110.54 592.557 1112.87 591.681 1114.53 589.929C1116.18 588.177 1117.01 585.813 1117.01 582.837C1117.01 579.837 1116.18 577.473 1114.53 575.745C1112.9 573.993 1110.57 573.117 1107.54 573.117H1103.22V592.557H1107.54ZM1123.09 586.257C1123.09 584.385 1123.45 582.741 1124.17 581.325C1124.92 579.909 1125.95 578.817 1127.27 578.049C1128.59 577.257 1130.1 576.861 1131.81 576.861C1133.49 576.861 1134.97 577.209 1136.27 577.905C1137.57 578.601 1138.59 579.609 1139.33 580.929C1140.07 582.249 1140.47 583.797 1140.52 585.573C1140.52 585.837 1140.49 586.257 1140.45 586.833H1126.19V587.085C1126.24 588.885 1126.79 590.325 1127.85 591.405C1128.9 592.485 1130.28 593.025 1131.99 593.025C1133.31 593.025 1134.42 592.701 1135.33 592.053C1136.27 591.381 1136.89 590.457 1137.21 589.281H1140.19C1139.83 591.153 1138.93 592.689 1137.49 593.889C1136.05 595.065 1134.29 595.653 1132.2 595.653C1130.38 595.653 1128.78 595.269 1127.41 594.501C1126.05 593.709 1124.98 592.605 1124.21 591.189C1123.47 589.749 1123.09 588.105 1123.09 586.257ZM1137.46 584.385C1137.31 582.825 1136.73 581.613 1135.69 580.749C1134.69 579.885 1133.4 579.453 1131.84 579.453C1130.45 579.453 1129.23 579.909 1128.17 580.821C1127.11 581.733 1126.51 582.921 1126.37 584.385H1137.46ZM1144.32 570.237H1159.98V573.117H1147.45V581.541H1157.82V584.421H1147.45V595.437H1144.32V570.237ZM1164.38 569.985C1164.93 569.985 1165.39 570.165 1165.75 570.525C1166.11 570.885 1166.29 571.341 1166.29 571.893C1166.29 572.445 1166.11 572.901 1165.75 573.261C1165.39 573.621 1164.93 573.801 1164.38 573.801C1163.83 573.801 1163.37 573.621 1163.01 573.261C1162.65 572.901 1162.47 572.445 1162.47 571.893C1162.47 571.341 1162.65 570.885 1163.01 570.525C1163.37 570.165 1163.83 569.985 1164.38 569.985ZM1162.91 577.077H1165.86V595.437H1162.91V577.077Z" fill="#4C4D5D"/>
    <path d="M1697.59 287.201H1701.26L1708.68 299.729L1716.2 287.201H1719.73L1710.23 303.113V312.437H1707.09V303.113L1697.59 287.201ZM1727.96 312.653C1726.18 312.653 1724.6 312.257 1723.21 311.465C1721.84 310.673 1720.77 309.569 1720 308.153C1719.23 306.737 1718.85 305.105 1718.85 303.257C1718.85 301.409 1719.23 299.777 1720 298.361C1720.77 296.945 1721.84 295.841 1723.21 295.049C1724.6 294.257 1726.18 293.861 1727.96 293.861C1729.73 293.861 1731.31 294.257 1732.67 295.049C1734.07 295.841 1735.15 296.945 1735.91 298.361C1736.68 299.777 1737.07 301.409 1737.07 303.257C1737.07 305.105 1736.68 306.737 1735.91 308.153C1735.15 309.569 1734.07 310.673 1732.67 311.465C1731.31 312.257 1729.73 312.653 1727.96 312.653ZM1727.96 310.025C1729.16 310.025 1730.21 309.737 1731.13 309.161C1732.06 308.585 1732.78 307.781 1733.29 306.749C1733.79 305.717 1734.04 304.553 1734.04 303.257C1734.04 301.961 1733.79 300.797 1733.29 299.765C1732.78 298.733 1732.06 297.929 1731.13 297.353C1730.21 296.777 1729.16 296.489 1727.96 296.489C1726.76 296.489 1725.69 296.777 1724.75 297.353C1723.84 297.929 1723.13 298.733 1722.63 299.765C1722.13 300.797 1721.87 301.961 1721.87 303.257C1721.87 304.553 1722.13 305.717 1722.63 306.749C1723.13 307.781 1723.84 308.585 1724.75 309.161C1725.69 309.737 1726.76 310.025 1727.96 310.025ZM1756.25 294.077V312.437H1753.7L1753.3 309.989C1751.91 311.765 1749.95 312.653 1747.43 312.653C1745.25 312.653 1743.5 311.981 1742.18 310.637C1740.86 309.293 1740.2 307.181 1740.2 304.301V294.077H1743.15V304.121C1743.15 306.017 1743.56 307.469 1744.37 308.477C1745.21 309.461 1746.4 309.953 1747.94 309.953C1749.62 309.953 1750.93 309.353 1751.86 308.153C1752.82 306.953 1753.3 305.321 1753.3 303.257V294.077H1756.25Z" fill="#4C4D5D"/>
    <path d="M785.039 11.2365H788.999L797.927 32.1525L806.747 11.2365H810.635V36.4365H807.575V16.5645L799.223 36.4365H796.451L788.099 16.5645V36.4365H785.039V11.2365ZM816.563 10.9845C817.115 10.9845 817.571 11.1645 817.931 11.5245C818.291 11.8845 818.471 12.3405 818.471 12.8925C818.471 13.4445 818.291 13.9005 817.931 14.2605C817.571 14.6205 817.115 14.8005 816.563 14.8005C816.011 14.8005 815.555 14.6205 815.195 14.2605C814.835 13.9005 814.655 13.4445 814.655 12.8925C814.655 12.3405 814.835 11.8845 815.195 11.5245C815.555 11.1645 816.011 10.9845 816.563 10.9845ZM815.087 18.0765H818.039V36.4365H815.087V18.0765ZM839.507 11.2365V36.4365H836.951L836.555 33.4845C835.019 35.5965 832.919 36.6525 830.255 36.6525C828.551 36.6525 827.027 36.2805 825.683 35.5365C824.363 34.7925 823.319 33.7125 822.551 32.2965C821.807 30.8805 821.435 29.2005 821.435 27.2565C821.435 25.4085 821.807 23.7765 822.551 22.3605C823.319 20.9445 824.375 19.8405 825.719 19.0485C827.063 18.2565 828.575 17.8605 830.255 17.8605C831.743 17.8605 833.015 18.1365 834.071 18.6885C835.127 19.2165 835.955 19.9485 836.555 20.8845V11.2365H839.507ZM830.543 34.0245C831.719 34.0245 832.763 33.7485 833.675 33.1965C834.611 32.6205 835.331 31.8285 835.835 30.8205C836.339 29.7885 836.591 28.6245 836.591 27.3285C836.591 26.0085 836.339 24.8325 835.835 23.8005C835.331 22.7445 834.611 21.9285 833.675 21.3525C832.763 20.7765 831.719 20.4885 830.543 20.4885C828.719 20.4885 827.243 21.1245 826.115 22.3965C825.011 23.6445 824.459 25.2645 824.459 27.2565C824.459 29.2485 825.011 30.8805 826.115 32.1525C827.243 33.4005 828.719 34.0245 830.543 34.0245ZM860.953 11.2365V36.4365H858.397L858.001 33.4845C856.465 35.5965 854.365 36.6525 851.701 36.6525C849.997 36.6525 848.473 36.2805 847.129 35.5365C845.809 34.7925 844.765 33.7125 843.997 32.2965C843.253 30.8805 842.881 29.2005 842.881 27.2565C842.881 25.4085 843.253 23.7765 843.997 22.3605C844.765 20.9445 845.821 19.8405 847.165 19.0485C848.509 18.2565 850.021 17.8605 851.701 17.8605C853.189 17.8605 854.461 18.1365 855.517 18.6885C856.573 19.2165 857.401 19.9485 858.001 20.8845V11.2365H860.953ZM851.989 34.0245C853.165 34.0245 854.209 33.7485 855.121 33.1965C856.057 32.6205 856.777 31.8285 857.281 30.8205C857.785 29.7885 858.037 28.6245 858.037 27.3285C858.037 26.0085 857.785 24.8325 857.281 23.8005C856.777 22.7445 856.057 21.9285 855.121 21.3525C854.209 20.7765 853.165 20.4885 851.989 20.4885C850.165 20.4885 848.689 21.1245 847.561 22.3965C846.457 23.6445 845.905 25.2645 845.905 27.2565C845.905 29.2485 846.457 30.8805 847.561 32.1525C848.689 33.4005 850.165 34.0245 851.989 34.0245ZM864.974 11.2365H867.926V36.4365H864.974V11.2365ZM871.322 27.2565C871.322 25.3845 871.682 23.7405 872.402 22.3245C873.146 20.9085 874.178 19.8165 875.498 19.0485C876.818 18.2565 878.33 17.8605 880.034 17.8605C881.714 17.8605 883.202 18.2085 884.498 18.9045C885.794 19.6005 886.814 20.6085 887.558 21.9285C888.302 23.2485 888.698 24.7965 888.746 26.5725C888.746 26.8365 888.722 27.2565 888.674 27.8325H874.418V28.0845C874.466 29.8845 875.018 31.3245 876.074 32.4045C877.13 33.4845 878.51 34.0245 880.214 34.0245C881.534 34.0245 882.65 33.7005 883.562 33.0525C884.498 32.3805 885.122 31.4565 885.434 30.2805H888.422C888.062 32.1525 887.162 33.6885 885.722 34.8885C884.282 36.0645 882.518 36.6525 880.43 36.6525C878.606 36.6525 877.01 36.2685 875.642 35.5005C874.274 34.7085 873.206 33.6045 872.438 32.1885C871.694 30.7485 871.322 29.1045 871.322 27.2565ZM885.686 25.3845C885.542 23.8245 884.954 22.6125 883.922 21.7485C882.914 20.8845 881.63 20.4525 880.07 20.4525C878.678 20.4525 877.454 20.9085 876.398 21.8205C875.342 22.7325 874.742 23.9205 874.598 25.3845H885.686ZM912.599 17.8605C914.663 17.8605 916.331 18.5085 917.603 19.8045C918.899 21.1005 919.547 23.1165 919.547 25.8525V36.4365H916.595V26.0325C916.595 24.2565 916.211 22.9005 915.443 21.9645C914.699 21.0285 913.631 20.5605 912.239 20.5605C910.703 20.5605 909.491 21.1005 908.603 22.1805C907.739 23.2605 907.307 24.7365 907.307 26.6085V36.4365H904.355V26.0325C904.355 24.2565 903.971 22.9005 903.203 21.9645C902.435 21.0285 901.343 20.5605 899.927 20.5605C898.439 20.5605 897.251 21.1365 896.363 22.2885C895.499 23.4165 895.067 24.9045 895.067 26.7525V36.4365H892.115V18.0765H894.671L895.067 20.5965C896.387 18.7725 898.175 17.8605 900.431 17.8605C901.751 17.8605 902.915 18.1605 903.923 18.7605C904.955 19.3365 905.723 20.2005 906.227 21.3525C907.547 19.0245 909.671 17.8605 912.599 17.8605ZM940.505 33.7365V36.4365H938.885C937.709 36.4365 936.869 36.1965 936.365 35.7165C935.861 35.2365 935.597 34.5285 935.573 33.5925C934.157 35.6325 932.105 36.6525 929.417 36.6525C927.377 36.6525 925.733 36.1725 924.485 35.2125C923.261 34.2525 922.649 32.9445 922.649 31.2885C922.649 29.4405 923.273 28.0245 924.521 27.0405C925.793 26.0565 927.629 25.5645 930.029 25.5645H935.429V24.3045C935.429 23.1045 935.021 22.1685 934.205 21.4965C933.413 20.8245 932.297 20.4885 930.857 20.4885C929.585 20.4885 928.529 20.7765 927.689 21.3525C926.873 21.9045 926.369 22.6485 926.177 23.5845H923.225C923.441 21.7845 924.233 20.3805 925.601 19.3725C926.993 18.3645 928.793 17.8605 931.001 17.8605C933.353 17.8605 935.165 18.4365 936.437 19.5885C937.733 20.7165 938.381 22.3485 938.381 24.4845V32.4045C938.381 33.2925 938.789 33.7365 939.605 33.7365H940.505ZM935.429 28.0485H929.741C927.005 28.0485 925.637 29.0685 925.637 31.1085C925.637 32.0205 925.997 32.7525 926.717 33.3045C927.437 33.8565 928.409 34.1325 929.633 34.1325C931.433 34.1325 932.849 33.6645 933.881 32.7285C934.913 31.7685 935.429 30.5085 935.429 28.9485V28.0485ZM951.775 17.8605C954.007 17.8605 955.795 18.5325 957.139 19.8765C958.507 21.2205 959.191 23.3325 959.191 26.2125V36.4365H956.239V26.3925C956.239 24.4965 955.807 23.0565 954.943 22.0725C954.103 21.0645 952.879 20.5605 951.271 20.5605C949.543 20.5605 948.187 21.1605 947.203 22.3605C946.219 23.5605 945.727 25.1925 945.727 27.2565V36.4365H942.775V18.0765H945.331L945.727 20.5605C947.119 18.7605 949.135 17.8605 951.775 17.8605Z" fill="#4C4D5D"/>
    <path d="M785.039 570.237H788.999L797.927 591.153L806.747 570.237H810.635V595.437H807.575V575.565L799.223 595.437H796.451L788.099 575.565V595.437H785.039V570.237ZM816.563 569.985C817.115 569.985 817.571 570.165 817.931 570.525C818.291 570.885 818.471 571.341 818.471 571.893C818.471 572.445 818.291 572.901 817.931 573.261C817.571 573.621 817.115 573.801 816.563 573.801C816.011 573.801 815.555 573.621 815.195 573.261C814.835 572.901 814.655 572.445 814.655 571.893C814.655 571.341 814.835 570.885 815.195 570.525C815.555 570.165 816.011 569.985 816.563 569.985ZM815.087 577.077H818.039V595.437H815.087V577.077ZM839.507 570.237V595.437H836.951L836.555 592.485C835.019 594.597 832.919 595.653 830.255 595.653C828.551 595.653 827.027 595.281 825.683 594.537C824.363 593.793 823.319 592.713 822.551 591.297C821.807 589.881 821.435 588.201 821.435 586.257C821.435 584.409 821.807 582.777 822.551 581.361C823.319 579.945 824.375 578.841 825.719 578.049C827.063 577.257 828.575 576.861 830.255 576.861C831.743 576.861 833.015 577.137 834.071 577.689C835.127 578.217 835.955 578.949 836.555 579.885V570.237H839.507ZM830.543 593.025C831.719 593.025 832.763 592.749 833.675 592.197C834.611 591.621 835.331 590.829 835.835 589.821C836.339 588.789 836.591 587.625 836.591 586.329C836.591 585.009 836.339 583.833 835.835 582.801C835.331 581.745 834.611 580.929 833.675 580.353C832.763 579.777 831.719 579.489 830.543 579.489C828.719 579.489 827.243 580.125 826.115 581.397C825.011 582.645 824.459 584.265 824.459 586.257C824.459 588.249 825.011 589.881 826.115 591.153C827.243 592.401 828.719 593.025 830.543 593.025ZM860.953 570.237V595.437H858.397L858.001 592.485C856.465 594.597 854.365 595.653 851.701 595.653C849.997 595.653 848.473 595.281 847.129 594.537C845.809 593.793 844.765 592.713 843.997 591.297C843.253 589.881 842.881 588.201 842.881 586.257C842.881 584.409 843.253 582.777 843.997 581.361C844.765 579.945 845.821 578.841 847.165 578.049C848.509 577.257 850.021 576.861 851.701 576.861C853.189 576.861 854.461 577.137 855.517 577.689C856.573 578.217 857.401 578.949 858.001 579.885V570.237H860.953ZM851.989 593.025C853.165 593.025 854.209 592.749 855.121 592.197C856.057 591.621 856.777 590.829 857.281 589.821C857.785 588.789 858.037 587.625 858.037 586.329C858.037 585.009 857.785 583.833 857.281 582.801C856.777 581.745 856.057 580.929 855.121 580.353C854.209 579.777 853.165 579.489 851.989 579.489C850.165 579.489 848.689 580.125 847.561 581.397C846.457 582.645 845.905 584.265 845.905 586.257C845.905 588.249 846.457 589.881 847.561 591.153C848.689 592.401 850.165 593.025 851.989 593.025ZM864.974 570.237H867.926V595.437H864.974V570.237ZM871.322 586.257C871.322 584.385 871.682 582.741 872.402 581.325C873.146 579.909 874.178 578.817 875.498 578.049C876.818 577.257 878.33 576.861 880.034 576.861C881.714 576.861 883.202 577.209 884.498 577.905C885.794 578.601 886.814 579.609 887.558 580.929C888.302 582.249 888.698 583.797 888.746 585.573C888.746 585.837 888.722 586.257 888.674 586.833H874.418V587.085C874.466 588.885 875.018 590.325 876.074 591.405C877.13 592.485 878.51 593.025 880.214 593.025C881.534 593.025 882.65 592.701 883.562 592.053C884.498 591.381 885.122 590.457 885.434 589.281H888.422C888.062 591.153 887.162 592.689 885.722 593.889C884.282 595.065 882.518 595.653 880.43 595.653C878.606 595.653 877.01 595.269 875.642 594.501C874.274 593.709 873.206 592.605 872.438 591.189C871.694 589.749 871.322 588.105 871.322 586.257ZM885.686 584.385C885.542 582.825 884.954 581.613 883.922 580.749C882.914 579.885 881.63 579.453 880.07 579.453C878.678 579.453 877.454 579.909 876.398 580.821C875.342 581.733 874.742 582.921 874.598 584.385H885.686ZM912.599 576.861C914.663 576.861 916.331 577.509 917.603 578.805C918.899 580.101 919.547 582.117 919.547 584.853V595.437H916.595V585.033C916.595 583.257 916.211 581.901 915.443 580.965C914.699 580.029 913.631 579.561 912.239 579.561C910.703 579.561 909.491 580.101 908.603 581.181C907.739 582.261 907.307 583.737 907.307 585.609V595.437H904.355V585.033C904.355 583.257 903.971 581.901 903.203 580.965C902.435 580.029 901.343 579.561 899.927 579.561C898.439 579.561 897.251 580.137 896.363 581.289C895.499 582.417 895.067 583.905 895.067 585.753V595.437H892.115V577.077H894.671L895.067 579.597C896.387 577.773 898.175 576.861 900.431 576.861C901.751 576.861 902.915 577.161 903.923 577.761C904.955 578.337 905.723 579.201 906.227 580.353C907.547 578.025 909.671 576.861 912.599 576.861ZM940.505 592.737V595.437H938.885C937.709 595.437 936.869 595.197 936.365 594.717C935.861 594.237 935.597 593.529 935.573 592.593C934.157 594.633 932.105 595.653 929.417 595.653C927.377 595.653 925.733 595.173 924.485 594.213C923.261 593.253 922.649 591.945 922.649 590.289C922.649 588.441 923.273 587.025 924.521 586.041C925.793 585.057 927.629 584.565 930.029 584.565H935.429V583.305C935.429 582.105 935.021 581.169 934.205 580.497C933.413 579.825 932.297 579.489 930.857 579.489C929.585 579.489 928.529 579.777 927.689 580.353C926.873 580.905 926.369 581.649 926.177 582.585H923.225C923.441 580.785 924.233 579.381 925.601 578.373C926.993 577.365 928.793 576.861 931.001 576.861C933.353 576.861 935.165 577.437 936.437 578.589C937.733 579.717 938.381 581.349 938.381 583.485V591.405C938.381 592.293 938.789 592.737 939.605 592.737H940.505ZM935.429 587.049H929.741C927.005 587.049 925.637 588.069 925.637 590.109C925.637 591.021 925.997 591.753 926.717 592.305C927.437 592.857 928.409 593.133 929.633 593.133C931.433 593.133 932.849 592.665 933.881 591.729C934.913 590.769 935.429 589.509 935.429 587.949V587.049ZM951.775 576.861C954.007 576.861 955.795 577.533 957.139 578.877C958.507 580.221 959.191 582.333 959.191 585.213V595.437H956.239V585.393C956.239 583.497 955.807 582.057 954.943 581.073C954.103 580.065 952.879 579.561 951.271 579.561C949.543 579.561 948.187 580.161 947.203 581.361C946.219 582.561 945.727 584.193 945.727 586.257V595.437H942.775V577.077H945.331L945.727 579.561C947.119 577.761 949.135 576.861 951.775 576.861Z" fill="#4C4D5D"/>
    <path d="M883.265 118.437C984.609 118.437 1066.76 200.368 1066.76 301.437" stroke="#D0D0D0" stroke-width="90" stroke-linecap="round"/>
    <path d="M1260.26 118.437C1361.61 118.437 1443.76 200.368 1443.76 301.437" stroke="#DBE8E1" stroke-width="90" stroke-linecap="round"/>
    <path d="M1066.26 301.937C1066.26 200.592 1148.2 118.437 1249.26 118.437" stroke="#AFCCBC" stroke-width="90" stroke-linecap="round"/>
    <path d="M1250.26 485.937C1148.92 485.937 1066.76 404.005 1066.76 302.937" stroke="#FFD5B6" stroke-width="90" stroke-linecap="round"/>
    <path d="M1066.26 301.437C1066.26 402.781 984.333 484.937 883.265 484.937" stroke="#D9D9D9" stroke-width="90" stroke-linecap="round"/>
    <path d="M874.265 484.937C772.92 484.937 690.765 403.005 690.765 301.937" stroke="#AFCCBC" stroke-width="90" stroke-linecap="round"/>
    <path d="M1444.26 302.437C1444.26 403.781 1362.33 485.937 1261.26 485.937" stroke="#D0D0D0" stroke-width="90" stroke-linecap="round"/>
    <rect x="1400.26" y="257.437" width="262" height="90" rx="45" fill="#D0D0D0"/>
    <rect x="645.265" y="256.437" width="90" height="90" rx="45" fill="#AFCCBC"/>
    <rect x="1572.26" y="257.437" width="90" height="90" rx="45" fill="#7D7D7D"/>
    <rect x="1205.26" y="73.4365" width="90" height="90" rx="45" fill="#EDEFF2"/>
    <rect x="839.265" y="439.437" width="90" height="90" rx="45" fill="#D9D9D9"/>
    <path d="M1617.26 868.437C1636.59 868.437 1652.26 852.766 1652.26 833.437C1652.26 814.107 1636.59 798.437 1617.26 798.437C1597.93 798.437 1582.26 814.107 1582.26 833.437C1582.26 852.766 1597.93 868.437 1617.26 868.437Z" fill="#FBB62B"/>
    <path d="M1638.02 827.662H1633.87C1631.58 821.315 1625.43 816.963 1617.32 816.963H1603.99V827.662H1599.36V831.5H1603.99V835.525H1599.36V839.363H1603.99V849.933H1617.32C1625.34 849.933 1631.44 845.617 1633.78 839.363H1638.02V835.525H1634.72C1634.8 834.848 1634.85 834.148 1634.85 833.448V833.355C1634.85 832.725 1634.81 832.107 1634.75 831.5H1638.03V827.662H1638.02ZM1607.72 820.382H1617.32C1623.27 820.382 1627.69 823.31 1629.74 827.65H1607.72V820.382V820.382ZM1617.32 846.48H1607.72V839.352H1629.71C1627.66 843.622 1623.25 846.48 1617.32 846.48ZM1630.98 833.53C1630.98 834.207 1630.94 834.872 1630.84 835.513H1607.72V831.488H1630.86C1630.94 832.118 1630.98 832.772 1630.98 833.437V833.53Z" fill="white"/>
    <path d="M1617.26 329.437C1632.18 329.437 1644.26 317.348 1644.26 302.437C1644.26 287.525 1632.18 275.437 1617.26 275.437C1602.35 275.437 1590.26 287.525 1590.26 302.437C1590.26 317.348 1602.35 329.437 1617.26 329.437Z" fill="#FBB62B"/>
    <path d="M1633.28 297.982H1630.07C1628.31 293.086 1623.56 289.729 1617.31 289.729H1607.02V297.982H1603.45V300.943H1607.02V304.048H1603.45V307.009H1607.02V315.163H1617.31C1623.49 315.163 1628.2 311.833 1630.01 307.009H1633.28V304.048H1630.73C1630.79 303.526 1630.83 302.986 1630.83 302.446V302.374C1630.83 301.888 1630.8 301.411 1630.76 300.943H1633.28V297.982H1633.28ZM1609.9 292.366H1617.31C1621.9 292.366 1625.31 294.625 1626.89 297.973H1609.9V292.366V292.366ZM1617.31 312.499H1609.9V307H1626.87C1625.28 310.294 1621.88 312.499 1617.31 312.499ZM1627.85 302.509C1627.85 303.031 1627.81 303.544 1627.74 304.039H1609.9V300.934H1627.75C1627.81 301.42 1627.85 301.924 1627.85 302.437V302.509Z" fill="white"/>
    <defs>
        <linearGradient id="paint0_linear_9104_25247" x1="954.48" y1="611.626" x2="966.04" y2="746.214" gradientUnits="userSpaceOnUse">
            <stop stop-color="#FF8E00"/>
            <stop offset="1" stop-color="#F2A52B"/>
        </linearGradient>
        <linearGradient id="paint1_linear_9104_25247" x1="1044.4" y1="665.84" x2="1044.72" y2="734.276" gradientUnits="userSpaceOnUse">
            <stop stop-color="#FF8E00"/>
            <stop offset="1" stop-color="#F2A52B"/>
        </linearGradient>
        <linearGradient id="paint2_linear_9104_25247" x1="1034.05" y1="615.609" x2="1039.75" y2="741.946" gradientUnits="userSpaceOnUse">
            <stop stop-color="#FF8E00"/>
            <stop offset="1" stop-color="#F2A52B"/>
        </linearGradient>
        <linearGradient id="paint3_linear_9104_25247" x1="1028.66" y1="679.287" x2="1029.48" y2="764.944" gradientUnits="userSpaceOnUse">
            <stop stop-color="#FF8E00"/>
            <stop offset="1" stop-color="#F2A52B"/>
        </linearGradient>
        <linearGradient id="paint4_linear_9104_25247" x1="986.656" y1="689.647" x2="1006.41" y2="731.089" gradientUnits="userSpaceOnUse">
            <stop stop-color="#FF8E00"/>
            <stop offset="1" stop-color="#F2A52B"/>
        </linearGradient>
    </defs>
</svg>