<svg width="1597" height="1008" viewBox="0 0 1597 1008" fill="none" xmlns="http://www.w3.org/2000/svg">
    <g clip-path="url(#clip0_9104_25249)">
        <path d="M583.702 378.875L894.829 690.002" stroke="#D9D9D9" stroke-width="16"/>
        <path d="M583.702 690L894.829 378.873" stroke="#D9D9D9" stroke-width="16"/>
        <path d="M739.265 314.564L941.265 112.564" stroke="#D9D9D9" stroke-width="16"/>
        <path d="M739.265 314.438L739.265 754.438" stroke="#D9D9D9" stroke-width="16"/>
        <path d="M519.265 534.438L959.265 534.438" stroke="#D9D9D9" stroke-width="16"/>
        <path d="M959.702 534.874L1351.7 926.874" stroke="#BFE3D0" stroke-width="16"/>
        <path d="M867.829 937.874L1270.83 534.874" stroke="#D9D9D9" stroke-width="16"/>
        <path d="M1115.26 690.438L1115.26 910.438" stroke="#DBE8E1" stroke-width="16"/>
        <path d="M895.265 690.438L1335.26 690.438" stroke="#D9D9D9" stroke-width="16"/>
        <path d="M276.829 72.001L674.829 470.001" stroke="#D9D9D9" stroke-width="16"/>
        <path d="M363.702 470.001L674.829 158.874" stroke="#D9D9D9" stroke-width="16"/>
        <path d="M519.265 94.4375L519.265 534.438" stroke="#D9D9D9" stroke-width="16"/>
        <path d="M299.265 314.438L739.265 314.438" stroke="#D9D9D9" stroke-width="16"/>
        <path d="M286.265 521.438L752.265 987.438" stroke="#DBE8E1" stroke-width="16"/>
        <path d="M428.827 844.874L898.827 374.874" stroke="#AFCCBC" stroke-width="16"/>
        <path d="M519.264 534.438L519.264 974.438" stroke="#D9D9D9" stroke-width="16"/>
        <path d="M299.264 754.438L739.264 754.438" stroke="#D9D9D9" stroke-width="16"/>
        <rect x="714.265" y="287.438" width="45" height="45" rx="22.5" fill="#DBE8E1"/>
        <rect x="665.265" y="124.438" width="45" height="45" rx="22.5" fill="#DBE8E1"/>
        <rect x="252.265" y="43.4375" width="45" height="45" rx="22.5" fill="#AFCCBC"/>
        <rect x="347.265" y="440.438" width="45" height="45" rx="22.5" fill="#DBE8E1"/>
        <rect x="252.265" y="490.438" width="45" height="45" rx="22.5" fill="#DBE8E1"/>
        <rect x="495.265" y="962.438" width="45" height="45" rx="22.5" fill="#DBE8E1"/>
        <rect x="715.265" y="949.438" width="45" height="45" rx="22.5" fill="#DBE8E1"/>
        <rect x="495.265" y="730.438" width="45" height="45" rx="22.5" fill="#D9D9D9"/>
        <rect x="495.265" y="292.438" width="45" height="45" rx="22.5" fill="#D9D9D9"/>
        <rect x="1096.26" y="665.438" width="45" height="45" rx="22.5" fill="#D9D9D9"/>
        <rect x="843.265" y="912.438" width="45" height="45" rx="22.5" fill="#DBE8E1"/>
        <rect x="1334.26" y="909.438" width="45" height="45" rx="22.5" fill="#DBE8E1"/>
        <rect x="392.265" y="834.438" width="45" height="45" rx="22.5" fill="#AFCCBC"/>
        <rect x="496.265" y="38.4375" width="45" height="82" rx="22.5" fill="#DBE8E1"/>
        <rect x="496.265" y="473.438" width="45" height="115" rx="22.5" fill="#AFCCBC"/>
        <rect x="181.265" y="292.438" width="141.5" height="45" rx="22.5" fill="#DBE8E1"/>
        <rect x="181.265" y="732.438" width="141.5" height="45" rx="22.5" fill="#F2F2F2"/>
        <path d="M959.702 222.874L1270.83 534.001" stroke="#D9D9D9" stroke-width="16"/>
        <path d="M959.702 534.001L1322.7 171.001" stroke="#DBE8E1" stroke-width="16"/>
        <path d="M1115.26 158.438L1115.26 687.438" stroke="#DBE8E1" stroke-width="16"/>
        <path d="M895.265 378.438L1335.26 378.438" stroke="#BFE3D0" stroke-width="16"/>
        <rect x="1304.26" y="356.438" width="61.5" height="45" rx="22.5" fill="#EDEFF2"/>
        <rect x="1254.26" y="508.438" width="161.5" height="45" rx="22.5" fill="#AFCCBC"/>
        <rect x="1004.26" y="331.438" width="222" height="93" rx="46.5" fill="#63D1C5"/>
        <rect x="903.265" y="509.438" width="82.5" height="45" rx="22.5" fill="#D9D9D9"/>
        <rect x="880.265" y="665.438" width="45" height="45" rx="22.5" fill="#D9D9D9"/>
        <rect x="716.265" y="729.438" width="45" height="45" rx="22.5" fill="#D9D9D9"/>
        <rect x="1244.26" y="667.438" width="140" height="45" rx="22.5" fill="#D9D9D9"/>
        <rect x="880.265" y="353.438" width="45" height="45" rx="22.5" fill="#D9D9D9"/>
        <rect x="1090.26" y="665.438" width="45" height="45" rx="22.5" fill="#D9D9D9"/>
        <rect x="1092.26" y="896.438" width="45" height="98.5" rx="22.5" fill="#DBE8E1"/>
        <rect x="1092.26" y="73.4375" width="45" height="98.5" rx="22.5" fill="#D9D9D9"/>
        <rect x="1299.26" y="149.438" width="45" height="45" rx="22.5" fill="#BFE3D0"/>
        <rect x="936.265" y="201.438" width="45" height="45" rx="22.5" fill="#AFCCBC"/>
        <rect x="925.265" y="79.4375" width="45" height="45" rx="22.5" fill="#DBE8E1"/>
        <rect x="628.265" y="488.438" width="222" height="93" rx="46.5" fill="#FFA900"/>
        <path d="M713.786 546.328C712.513 545.946 711.499 545.425 710.746 544.782L711.884 542.221C712.61 542.797 713.501 543.262 714.568 543.632C715.624 544.002 716.691 544.179 717.758 544.179C719.072 544.179 720.06 543.973 720.716 543.55C721.372 543.126 721.689 542.565 721.689 541.88C721.689 541.374 721.51 540.948 721.142 540.618C720.772 540.289 720.322 540.03 719.76 539.839C719.199 539.648 718.446 539.442 717.473 539.21C716.118 538.896 715.021 538.566 714.186 538.252C713.351 537.937 712.625 537.432 712.022 536.747C711.42 536.061 711.12 535.13 711.12 533.965C711.12 532.98 711.379 532.09 711.914 531.281C712.449 530.473 713.254 529.843 714.324 529.364C715.406 528.885 716.72 528.653 718.267 528.653C719.349 528.653 720.416 528.791 721.472 529.064C722.527 529.338 723.43 529.723 724.182 530.229L723.141 532.789C722.362 532.337 721.554 531.981 720.704 531.749C719.855 531.516 719.034 531.393 718.24 531.393C716.941 531.393 715.968 531.613 715.339 532.051C714.71 532.489 714.38 533.077 714.38 533.804C714.38 534.309 714.56 534.721 714.927 535.05C715.295 535.379 715.747 535.626 716.309 535.817C716.87 536.009 717.623 536.214 718.596 536.447C719.91 536.747 721.007 537.064 721.842 537.405C722.692 537.734 723.418 538.24 724.021 538.91C724.623 539.581 724.923 540.498 724.923 541.65C724.923 542.635 724.664 543.526 724.129 544.32C723.594 545.114 722.789 545.743 721.707 546.222C720.625 546.701 719.296 546.934 717.75 546.934C716.394 546.919 715.08 546.713 713.792 546.331L713.786 546.328Z" fill="black"/>
        <path d="M740.12 529.635C741.258 530.14 742.134 530.867 742.748 531.825C743.366 532.769 743.666 533.892 743.666 535.206C743.666 536.52 743.366 537.617 742.748 538.575C742.131 539.534 741.269 540.26 740.12 540.765C738.982 541.271 737.642 541.533 736.095 541.533H732.082V546.669H728.78V528.879H736.092C737.627 528.879 738.967 529.126 740.117 529.632L740.12 529.635ZM739.217 537.823C739.958 537.205 740.34 536.344 740.34 535.206C740.34 534.068 739.97 533.192 739.217 532.589C738.476 531.972 737.383 531.672 735.945 531.672H732.082V538.725H735.945C737.383 538.725 738.479 538.425 739.217 537.823Z" fill="black"/>
        <path d="M757.06 542.547H748.173L746.42 546.654H743.01L751.007 528.879H754.253L762.279 546.654H758.827L757.06 542.547ZM755.964 539.945L752.609 532.166L749.281 539.945H755.964Z" fill="black"/>
        <path d="M776.314 546.654L772.686 541.45C772.536 541.465 772.304 541.477 772.001 541.477H767.988V546.654H764.687V528.879H771.998C773.533 528.879 774.888 529.138 776.023 529.646C777.161 530.152 778.037 530.878 778.652 531.837C779.269 532.78 779.569 533.904 779.569 535.218C779.569 536.532 779.24 537.711 778.596 538.669C777.937 539.628 777.008 540.354 775.788 540.833L779.883 546.681H776.308V546.654H776.314ZM775.124 532.589C774.383 531.972 773.289 531.672 771.851 531.672H767.988V538.752H771.851C773.289 538.752 774.386 538.437 775.124 537.82C775.861 537.202 776.247 536.326 776.247 535.191C776.247 534.068 775.876 533.192 775.124 532.589Z" fill="black"/>
        <path d="M789.65 539.219L786.828 542.109V546.654H783.526V528.879H786.828V537.999L795.618 528.879H799.329L791.864 536.823L799.793 546.654H795.93L789.644 539.219H789.65Z" fill="black"/>
        <path d="M685.73 551.876L672.088 536.006C671.833 535.709 672.18 535.279 672.524 535.468L681.696 540.445C682.128 540.68 682.464 541.065 682.634 541.527L686.327 551.523C686.462 551.89 685.986 552.173 685.73 551.876Z" fill="black"/>
        <path d="M687.7 548.227L683.937 529.623C683.881 529.347 683.937 529.055 684.087 528.817L690.654 518.539C690.787 518.333 691.107 518.442 691.084 518.689L688.161 548.204C688.135 548.471 687.753 548.489 687.7 548.227Z" fill="black"/>
        <path d="M690.957 542.747L698.178 532.242C698.425 531.884 698.854 531.699 699.286 531.763L703.905 532.463C704.202 532.507 704.302 532.886 704.067 533.072L691.319 543.088C691.093 543.264 690.796 542.985 690.957 542.75V542.747Z" fill="black"/>
        <path d="M692.036 535.544L695.729 512.198C695.767 511.956 696.102 511.927 696.182 512.159L699.457 521.697C699.554 521.982 699.53 522.293 699.389 522.561L692.474 535.691C692.351 535.923 691.995 535.806 692.036 535.547V535.544Z" fill="black"/>
        <path d="M676.207 530.937L677.033 525.072C677.069 524.831 677.398 524.787 677.495 525.01L682.59 536.885C682.693 537.126 682.393 537.334 682.202 537.155L676.516 531.819C676.275 531.593 676.157 531.26 676.204 530.934L676.207 530.937Z" fill="black"/>
        <path d="M1049.32 371.749V387.437H1046.26V369.213C1046.26 367.751 1047.95 366.918 1049.12 367.797L1063.66 378.655C1064.1 378.99 1064.37 379.514 1064.37 380.071V387.437H1061.31V380.703L1049.32 371.749Z" fill="black"/>
        <path d="M1098.67 370.224C1097.47 370.224 1096.49 371.191 1096.49 372.383V386.032H1099.32V374.207L1103.12 380.374C1103.56 381.076 1104.33 381.504 1105.16 381.504C1105.98 381.504 1106.75 381.078 1107.19 380.378L1111.01 374.207V386.032H1113.84V372.283C1113.84 371.146 1112.91 370.224 1111.76 370.224C1111.03 370.224 1110.35 370.611 1109.98 371.241L1105.21 379.302L1100.55 371.302C1100.16 370.635 1099.44 370.224 1098.67 370.224Z" fill="black"/>
        <path fill-rule="evenodd" clip-rule="evenodd" d="M1126.88 370.224C1125.95 370.224 1125.11 370.79 1124.76 371.651L1119.02 386.032H1121.76L1123.54 381.893H1130.04L1131.82 386.032H1134.72L1128.99 371.652C1128.65 370.79 1127.81 370.224 1126.88 370.224ZM1126.79 373.461L1129.05 379.324H1124.51L1126.79 373.461Z" fill="black"/>
        <path d="M1142.36 377.466L1149.25 370.597C1149.49 370.358 1149.81 370.224 1150.15 370.224C1151.29 370.224 1151.86 371.591 1151.05 372.388L1145.59 377.789L1153.65 386.032H1149.98L1142.36 378.378V386.032H1139.54V371.626C1139.54 370.852 1140.17 370.224 1140.95 370.224C1141.73 370.224 1142.36 370.852 1142.36 371.626V377.466Z" fill="black"/>
        <path d="M1158.64 383.5C1158.64 384.898 1159.78 386.032 1161.19 386.032H1168.51C1169.23 386.032 1169.81 385.454 1169.81 384.741C1169.81 384.029 1169.23 383.451 1168.51 383.451H1161.48V379.179H1167.9C1168.61 379.179 1169.2 378.601 1169.2 377.889C1169.2 377.176 1168.61 376.598 1167.9 376.598H1161.48V372.805H1168.51C1169.23 372.805 1169.81 372.227 1169.81 371.515C1169.81 370.802 1169.23 370.224 1168.51 370.224H1161.19C1159.78 370.224 1158.64 371.358 1158.64 372.756V383.5Z" fill="black"/>
        <path fill-rule="evenodd" clip-rule="evenodd" d="M1188.58 374.752C1188.58 375.256 1188.52 375.738 1188.39 376.198C1188.27 376.65 1188.07 377.088 1187.81 377.511C1187.54 377.933 1187.18 378.311 1186.72 378.645C1186.26 378.979 1185.72 379.238 1185.09 379.424L1189.9 386.032H1186.23L1181.77 379.902H1179.07V386.032H1176.24V372.756C1176.24 371.358 1177.38 370.224 1178.79 370.224H1183.02C1183.36 370.224 1183.66 370.235 1183.94 370.258C1184.22 370.272 1184.56 370.317 1184.96 370.391C1185.36 370.458 1185.72 370.55 1186.02 370.669C1186.34 370.788 1186.66 370.962 1186.99 371.192C1187.32 371.422 1187.6 371.693 1187.82 372.004C1188.04 372.308 1188.22 372.697 1188.37 373.172C1188.51 373.639 1188.58 374.166 1188.58 374.752ZM1179.07 372.794V377.321H1181.67C1182.11 377.321 1182.51 377.307 1182.85 377.277C1183.2 377.247 1183.55 377.188 1183.92 377.099C1184.28 377.003 1184.58 376.873 1184.81 376.71C1185.05 376.546 1185.25 376.32 1185.4 376.031C1185.55 375.742 1185.63 375.401 1185.63 375.008C1185.63 373.532 1184.49 372.794 1182.19 372.794H1179.07Z" fill="black"/>
        <path d="M1081.71 387.437V371.749L1069.72 380.703V387.437H1066.66V380.071C1066.66 379.514 1066.93 378.99 1067.37 378.655L1081.91 367.797C1083.08 366.918 1084.76 367.751 1084.76 369.213V387.437H1081.71Z" fill="black"/>
        <path d="M1446.66 517.237H1449.98L1457.68 538.729L1465.35 517.237H1468.59L1459.52 542.438H1455.74L1446.66 517.237ZM1477.42 542.654C1475.64 542.654 1474.06 542.257 1472.67 541.465C1471.3 540.673 1470.23 539.569 1469.46 538.153C1468.69 536.737 1468.31 535.105 1468.31 533.257C1468.31 531.409 1468.69 529.777 1469.46 528.361C1470.23 526.945 1471.3 525.841 1472.67 525.049C1474.06 524.257 1475.64 523.861 1477.42 523.861C1479.19 523.861 1480.77 524.257 1482.13 525.049C1483.53 525.841 1484.61 526.945 1485.37 528.361C1486.14 529.777 1486.53 531.409 1486.53 533.257C1486.53 535.105 1486.14 536.737 1485.37 538.153C1484.61 539.569 1483.53 540.673 1482.13 541.465C1480.77 542.257 1479.19 542.654 1477.42 542.654ZM1477.42 540.025C1478.62 540.025 1479.67 539.737 1480.59 539.161C1481.52 538.585 1482.24 537.781 1482.75 536.749C1483.25 535.717 1483.5 534.553 1483.5 533.257C1483.5 531.961 1483.25 530.797 1482.75 529.765C1482.24 528.733 1481.52 527.929 1480.59 527.353C1479.67 526.777 1478.62 526.489 1477.42 526.489C1476.22 526.489 1475.15 526.777 1474.21 527.353C1473.3 527.929 1472.59 528.733 1472.09 529.765C1471.59 530.797 1471.33 531.961 1471.33 533.257C1471.33 534.553 1471.59 535.717 1472.09 536.749C1472.59 537.781 1473.3 538.585 1474.21 539.161C1475.15 539.737 1476.22 540.025 1477.42 540.025ZM1490.92 526.777H1487.61V524.077H1490.92V518.929H1493.88V524.077H1498.52V526.777H1493.88V537.613C1493.88 538.381 1494.02 538.933 1494.31 539.269C1494.62 539.581 1495.15 539.737 1495.89 539.737H1499.1V542.438H1495.71C1493.98 542.438 1492.75 542.053 1492 541.285C1491.28 540.517 1490.92 539.305 1490.92 537.649V526.777ZM1500.09 533.257C1500.09 531.385 1500.45 529.741 1501.17 528.325C1501.92 526.909 1502.95 525.817 1504.27 525.049C1505.59 524.257 1507.1 523.861 1508.8 523.861C1510.48 523.861 1511.97 524.209 1513.27 524.905C1514.56 525.601 1515.58 526.609 1516.33 527.929C1517.07 529.249 1517.47 530.797 1517.52 532.573C1517.52 532.837 1517.49 533.257 1517.44 533.833H1503.19V534.085C1503.24 535.885 1503.79 537.325 1504.84 538.405C1505.9 539.485 1507.28 540.025 1508.98 540.025C1510.3 540.025 1511.42 539.701 1512.33 539.053C1513.27 538.381 1513.89 537.457 1514.2 536.281H1517.19C1516.83 538.153 1515.93 539.689 1514.49 540.889C1513.05 542.065 1511.29 542.654 1509.2 542.654C1507.38 542.654 1505.78 542.269 1504.41 541.501C1503.04 540.709 1501.98 539.605 1501.21 538.189C1500.46 536.749 1500.09 535.105 1500.09 533.257ZM1514.46 531.385C1514.31 529.825 1513.72 528.613 1512.69 527.749C1511.68 526.885 1510.4 526.453 1508.84 526.453C1507.45 526.453 1506.22 526.909 1505.17 527.821C1504.11 528.733 1503.51 529.921 1503.37 531.385H1514.46ZM1530.21 524.077V526.957H1528.73C1526.98 526.957 1525.72 527.545 1524.95 528.721C1524.21 529.897 1523.84 531.349 1523.84 533.077V542.438H1520.88V524.077H1523.44L1523.84 526.849C1524.36 526.009 1525.05 525.337 1525.89 524.833C1526.73 524.329 1527.89 524.077 1529.38 524.077H1530.21ZM1534.54 536.389C1534.59 537.493 1535.07 538.393 1535.98 539.089C1536.92 539.785 1538.12 540.133 1539.58 540.133C1540.88 540.133 1541.92 539.881 1542.72 539.377C1543.53 538.849 1543.94 538.165 1543.94 537.325C1543.94 536.605 1543.75 536.053 1543.36 535.669C1542.98 535.285 1542.48 535.021 1541.85 534.877C1541.25 534.733 1540.39 534.589 1539.26 534.445C1537.68 534.253 1536.38 534.001 1535.37 533.689C1534.36 533.377 1533.55 532.885 1532.92 532.213C1532.3 531.517 1531.99 530.569 1531.99 529.369C1531.99 528.289 1532.29 527.329 1532.89 526.489C1533.51 525.649 1534.35 525.001 1535.41 524.545C1536.46 524.065 1537.65 523.825 1538.97 523.825C1541.13 523.825 1542.88 524.329 1544.23 525.337C1545.6 526.345 1546.35 527.785 1546.5 529.657H1543.54C1543.42 528.697 1542.96 527.905 1542.14 527.281C1541.32 526.657 1540.3 526.345 1539.08 526.345C1537.83 526.345 1536.82 526.609 1536.06 527.137C1535.29 527.641 1534.9 528.313 1534.9 529.153C1534.9 529.777 1535.08 530.257 1535.44 530.593C1535.8 530.929 1536.26 531.157 1536.81 531.277C1537.39 531.397 1538.25 531.529 1539.4 531.673C1541.01 531.865 1542.33 532.129 1543.36 532.465C1544.42 532.801 1545.26 533.341 1545.88 534.085C1546.53 534.829 1546.86 535.837 1546.86 537.109C1546.86 538.213 1546.53 539.185 1545.88 540.025C1545.24 540.865 1544.36 541.513 1543.26 541.969C1542.15 542.425 1540.93 542.654 1539.58 542.654C1537.18 542.654 1535.25 542.101 1533.79 540.997C1532.35 539.893 1531.62 538.357 1531.59 536.389H1534.54Z" fill="#4C4D5D"/>
        <path d="M194.127 886.237H201.579C204.171 886.237 206.415 886.765 208.311 887.821C210.231 888.853 211.695 890.317 212.703 892.213C213.735 894.109 214.251 896.317 214.251 898.837C214.251 901.333 213.735 903.541 212.703 905.461C211.695 907.357 210.231 908.833 208.311 909.889C206.415 910.921 204.171 911.438 201.579 911.438H194.127V886.237ZM201.579 908.557C204.579 908.557 206.907 907.681 208.563 905.929C210.219 904.177 211.047 901.813 211.047 898.837C211.047 895.837 210.219 893.473 208.563 891.745C206.931 889.993 204.603 889.117 201.579 889.117H197.259V908.557H201.579ZM215.067 911.438L224.679 886.237H228.387L237.963 911.438H234.615L231.951 904.633H220.971L218.307 911.438H215.067ZM221.907 901.789H231.015L226.443 889.657L221.907 901.789ZM240.814 886.237H243.946V911.438H240.814V886.237ZM258.252 886.201H261.384V897.181H274.416V886.201H277.548V911.438H274.416V900.061H261.384V911.438H258.252V886.201ZM290.467 911.654C288.691 911.654 287.107 911.257 285.715 910.465C284.347 909.673 283.279 908.569 282.511 907.153C281.743 905.737 281.359 904.105 281.359 902.257C281.359 900.409 281.743 898.777 282.511 897.361C283.279 895.945 284.347 894.841 285.715 894.049C287.107 893.257 288.691 892.861 290.467 892.861C292.243 892.861 293.815 893.257 295.183 894.049C296.575 894.841 297.655 895.945 298.423 897.361C299.191 898.777 299.575 900.409 299.575 902.257C299.575 904.105 299.191 905.737 298.423 907.153C297.655 908.569 296.575 909.673 295.183 910.465C293.815 911.257 292.243 911.654 290.467 911.654ZM290.467 909.025C291.667 909.025 292.723 908.737 293.635 908.161C294.571 907.585 295.291 906.781 295.795 905.749C296.299 904.717 296.551 903.553 296.551 902.257C296.551 900.961 296.299 899.797 295.795 898.765C295.291 897.733 294.571 896.929 293.635 896.353C292.723 895.777 291.667 895.489 290.467 895.489C289.267 895.489 288.199 895.777 287.263 896.353C286.351 896.929 285.643 897.733 285.139 898.765C284.635 899.797 284.383 900.961 284.383 902.257C284.383 903.553 284.635 904.717 285.139 905.749C285.643 906.781 286.351 907.585 287.263 908.161C288.199 908.737 289.267 909.025 290.467 909.025ZM302.96 886.237H305.912V911.438H302.96V886.237ZM327.38 886.237V911.438H324.824L324.428 908.485C322.892 910.597 320.792 911.654 318.128 911.654C316.424 911.654 314.9 911.281 313.556 910.537C312.236 909.793 311.192 908.713 310.424 907.297C309.68 905.881 309.308 904.201 309.308 902.257C309.308 900.409 309.68 898.777 310.424 897.361C311.192 895.945 312.248 894.841 313.592 894.049C314.936 893.257 316.448 892.861 318.128 892.861C319.616 892.861 320.888 893.137 321.944 893.689C323 894.217 323.828 894.949 324.428 895.885V886.237H327.38ZM318.416 909.025C319.592 909.025 320.636 908.749 321.548 908.197C322.484 907.621 323.204 906.829 323.708 905.821C324.212 904.789 324.464 903.625 324.464 902.329C324.464 901.009 324.212 899.833 323.708 898.801C323.204 897.745 322.484 896.929 321.548 896.353C320.636 895.777 319.592 895.489 318.416 895.489C316.592 895.489 315.116 896.125 313.988 897.397C312.884 898.645 312.332 900.265 312.332 902.257C312.332 904.249 312.884 905.881 313.988 907.153C315.116 908.401 316.592 909.025 318.416 909.025ZM330.754 902.257C330.754 900.385 331.114 898.741 331.834 897.325C332.578 895.909 333.61 894.817 334.93 894.049C336.25 893.257 337.762 892.861 339.466 892.861C341.146 892.861 342.634 893.209 343.93 893.905C345.226 894.601 346.246 895.609 346.99 896.929C347.734 898.249 348.13 899.797 348.178 901.573C348.178 901.837 348.154 902.257 348.106 902.833H333.85V903.085C333.898 904.885 334.45 906.325 335.506 907.405C336.562 908.485 337.942 909.025 339.646 909.025C340.966 909.025 342.082 908.701 342.994 908.053C343.93 907.381 344.554 906.457 344.866 905.281H347.854C347.494 907.153 346.594 908.689 345.154 909.889C343.714 911.065 341.95 911.654 339.862 911.654C338.038 911.654 336.442 911.269 335.074 910.501C333.706 909.709 332.638 908.605 331.87 907.189C331.126 905.749 330.754 904.105 330.754 902.257ZM345.118 900.385C344.974 898.825 344.386 897.613 343.354 896.749C342.346 895.885 341.062 895.453 339.502 895.453C338.11 895.453 336.886 895.909 335.83 896.821C334.774 897.733 334.174 898.921 334.03 900.385H345.118ZM360.87 893.077V895.957H359.394C357.642 895.957 356.382 896.545 355.614 897.721C354.87 898.897 354.498 900.349 354.498 902.077V911.438H351.546V893.077H354.102L354.498 895.849C355.026 895.009 355.71 894.337 356.55 893.833C357.39 893.329 358.554 893.077 360.042 893.077H360.87ZM365.206 905.389C365.254 906.493 365.734 907.393 366.646 908.089C367.582 908.785 368.782 909.133 370.246 909.133C371.542 909.133 372.586 908.881 373.378 908.377C374.194 907.849 374.602 907.165 374.602 906.325C374.602 905.605 374.41 905.053 374.026 904.669C373.642 904.285 373.138 904.021 372.514 903.877C371.914 903.733 371.05 903.589 369.922 903.445C368.338 903.253 367.042 903.001 366.034 902.689C365.026 902.377 364.21 901.885 363.586 901.213C362.962 900.517 362.65 899.569 362.65 898.369C362.65 897.289 362.95 896.329 363.55 895.489C364.174 894.649 365.014 894.001 366.07 893.545C367.126 893.065 368.314 892.825 369.634 892.825C371.794 892.825 373.546 893.329 374.89 894.337C376.258 895.345 377.014 896.785 377.158 898.657H374.206C374.086 897.697 373.618 896.905 372.802 896.281C371.986 895.657 370.966 895.345 369.742 895.345C368.494 895.345 367.486 895.609 366.718 896.137C365.95 896.641 365.566 897.313 365.566 898.153C365.566 898.777 365.746 899.257 366.106 899.593C366.466 899.929 366.922 900.157 367.474 900.277C368.05 900.397 368.914 900.529 370.066 900.673C371.674 900.865 372.994 901.129 374.026 901.465C375.082 901.801 375.922 902.341 376.546 903.085C377.194 903.829 377.518 904.837 377.518 906.109C377.518 907.213 377.194 908.185 376.546 909.025C375.898 909.865 375.022 910.513 373.918 910.969C372.814 911.425 371.59 911.654 370.246 911.654C367.846 911.654 365.914 911.101 364.45 909.997C363.01 908.893 362.278 907.357 362.254 905.389H365.206Z" fill="#4C4D5D"/>
        <path d="M31.7556 11.2375H35.7156L44.6436 32.1535L53.4636 11.2375H57.3516V36.4375H54.2916V16.5655L45.9396 36.4375H43.1676L34.8156 16.5655V36.4375H31.7556V11.2375ZM62.2361 11.2375H65.3681V25.5295L78.0761 11.2375H81.8921L72.6761 21.8575L82.6121 36.4375H78.8681L70.3721 24.2335L65.3681 29.8855V36.4375H62.2361V11.2375ZM94.8411 11.2375C96.4971 11.2375 97.9611 11.5615 99.2331 12.2095C100.505 12.8335 101.489 13.7335 102.185 14.9095C102.881 16.0615 103.229 17.4175 103.229 18.9775C103.229 20.7295 102.737 22.2535 101.753 23.5495C100.793 24.8215 99.4971 25.6855 97.8651 26.1415L103.517 36.4375H99.9891L94.7691 26.7535H88.3251V36.4375H85.1931V11.2375H94.8411ZM88.3251 23.8735H94.5891C96.2451 23.8735 97.5651 23.4295 98.5491 22.5415C99.5331 21.6535 100.025 20.4655 100.025 18.9775C100.025 17.5135 99.5331 16.3375 98.5491 15.4495C97.5651 14.5615 96.2571 14.1175 94.6251 14.1175H88.3251V23.8735ZM116.623 11.2015H119.755V22.1815H132.787V11.2015H135.919V36.4375H132.787V25.0615H119.755V36.4375H116.623V11.2015ZM148.838 36.6535C147.062 36.6535 145.478 36.2575 144.086 35.4655C142.718 34.6735 141.65 33.5695 140.882 32.1535C140.114 30.7375 139.73 29.1055 139.73 27.2575C139.73 25.4095 140.114 23.7775 140.882 22.3615C141.65 20.9455 142.718 19.8415 144.086 19.0495C145.478 18.2575 147.062 17.8615 148.838 17.8615C150.614 17.8615 152.186 18.2575 153.554 19.0495C154.946 19.8415 156.026 20.9455 156.794 22.3615C157.562 23.7775 157.946 25.4095 157.946 27.2575C157.946 29.1055 157.562 30.7375 156.794 32.1535C156.026 33.5695 154.946 34.6735 153.554 35.4655C152.186 36.2575 150.614 36.6535 148.838 36.6535ZM148.838 34.0255C150.038 34.0255 151.094 33.7375 152.006 33.1615C152.942 32.5855 153.662 31.7815 154.166 30.7495C154.67 29.7175 154.922 28.5535 154.922 27.2575C154.922 25.9615 154.67 24.7975 154.166 23.7655C153.662 22.7335 152.942 21.9295 152.006 21.3535C151.094 20.7775 150.038 20.4895 148.838 20.4895C147.638 20.4895 146.57 20.7775 145.634 21.3535C144.722 21.9295 144.014 22.7335 143.51 23.7655C143.006 24.7975 142.754 25.9615 142.754 27.2575C142.754 28.5535 143.006 29.7175 143.51 30.7495C144.014 31.7815 144.722 32.5855 145.634 33.1615C146.57 33.7375 147.638 34.0255 148.838 34.0255ZM161.331 11.2375H164.283V36.4375H161.331V11.2375ZM185.752 11.2375V36.4375H183.196L182.8 33.4855C181.264 35.5975 179.164 36.6535 176.5 36.6535C174.796 36.6535 173.272 36.2815 171.928 35.5375C170.608 34.7935 169.564 33.7135 168.796 32.2975C168.052 30.8815 167.68 29.2015 167.68 27.2575C167.68 25.4095 168.052 23.7775 168.796 22.3615C169.564 20.9455 170.62 19.8415 171.964 19.0495C173.308 18.2575 174.82 17.8615 176.5 17.8615C177.988 17.8615 179.26 18.1375 180.316 18.6895C181.372 19.2175 182.2 19.9495 182.8 20.8855V11.2375H185.752ZM176.788 34.0255C177.964 34.0255 179.008 33.7495 179.92 33.1975C180.856 32.6215 181.576 31.8295 182.08 30.8215C182.584 29.7895 182.836 28.6255 182.836 27.3295C182.836 26.0095 182.584 24.8335 182.08 23.8015C181.576 22.7455 180.856 21.9295 179.92 21.3535C179.008 20.7775 177.964 20.4895 176.788 20.4895C174.964 20.4895 173.488 21.1255 172.36 22.3975C171.256 23.6455 170.704 25.2655 170.704 27.2575C170.704 29.2495 171.256 30.8815 172.36 32.1535C173.488 33.4015 174.964 34.0255 176.788 34.0255ZM189.125 27.2575C189.125 25.3855 189.485 23.7415 190.205 22.3255C190.949 20.9095 191.981 19.8175 193.301 19.0495C194.621 18.2575 196.133 17.8615 197.837 17.8615C199.517 17.8615 201.005 18.2095 202.301 18.9055C203.597 19.6015 204.617 20.6095 205.361 21.9295C206.105 23.2495 206.501 24.7975 206.549 26.5735C206.549 26.8375 206.525 27.2575 206.477 27.8335H192.221V28.0855C192.269 29.8855 192.821 31.3255 193.877 32.4055C194.933 33.4855 196.313 34.0255 198.017 34.0255C199.337 34.0255 200.453 33.7015 201.365 33.0535C202.301 32.3815 202.925 31.4575 203.237 30.2815H206.225C205.865 32.1535 204.965 33.6895 203.525 34.8895C202.085 36.0655 200.321 36.6535 198.233 36.6535C196.409 36.6535 194.813 36.2695 193.445 35.5015C192.077 34.7095 191.009 33.6055 190.241 32.1895C189.497 30.7495 189.125 29.1055 189.125 27.2575ZM203.489 25.3855C203.345 23.8255 202.757 22.6135 201.725 21.7495C200.717 20.8855 199.433 20.4535 197.873 20.4535C196.481 20.4535 195.257 20.9095 194.201 21.8215C193.145 22.7335 192.545 23.9215 192.401 25.3855H203.489ZM219.241 18.0775V20.9575H217.765C216.013 20.9575 214.753 21.5455 213.985 22.7215C213.241 23.8975 212.869 25.3495 212.869 27.0775V36.4375H209.917V18.0775H212.473L212.869 20.8495C213.397 20.0095 214.081 19.3375 214.921 18.8335C215.761 18.3295 216.925 18.0775 218.413 18.0775H219.241ZM223.577 30.3895C223.625 31.4935 224.105 32.3935 225.017 33.0895C225.953 33.7855 227.153 34.1335 228.617 34.1335C229.913 34.1335 230.957 33.8815 231.749 33.3775C232.565 32.8495 232.973 32.1655 232.973 31.3255C232.973 30.6055 232.781 30.0535 232.397 29.6695C232.013 29.2855 231.509 29.0215 230.885 28.8775C230.285 28.7335 229.421 28.5895 228.293 28.4455C226.709 28.2535 225.413 28.0015 224.405 27.6895C223.397 27.3775 222.581 26.8855 221.957 26.2135C221.333 25.5175 221.021 24.5695 221.021 23.3695C221.021 22.2895 221.321 21.3295 221.921 20.4895C222.545 19.6495 223.385 19.0015 224.441 18.5455C225.497 18.0655 226.685 17.8255 228.005 17.8255C230.165 17.8255 231.917 18.3295 233.261 19.3375C234.629 20.3455 235.385 21.7855 235.529 23.6575H232.577C232.457 22.6975 231.989 21.9055 231.173 21.2815C230.357 20.6575 229.337 20.3455 228.113 20.3455C226.865 20.3455 225.857 20.6095 225.089 21.1375C224.321 21.6415 223.937 22.3135 223.937 23.1535C223.937 23.7775 224.117 24.2575 224.477 24.5935C224.837 24.9295 225.293 25.1575 225.845 25.2775C226.421 25.3975 227.285 25.5295 228.437 25.6735C230.045 25.8655 231.365 26.1295 232.397 26.4655C233.453 26.8015 234.293 27.3415 234.917 28.0855C235.565 28.8295 235.889 29.8375 235.889 31.1095C235.889 32.2135 235.565 33.1855 234.917 34.0255C234.269 34.8655 233.393 35.5135 232.289 35.9695C231.185 36.4255 229.961 36.6535 228.617 36.6535C226.217 36.6535 224.285 36.1015 222.821 34.9975C221.381 33.8935 220.649 32.3575 220.625 30.3895H223.577Z" fill="#4C4D5D"/>
        <path d="M789.959 740.237H797.411C800.003 740.237 802.247 740.765 804.143 741.821C806.063 742.853 807.527 744.317 808.535 746.213C809.567 748.109 810.083 750.317 810.083 752.837C810.083 755.333 809.567 757.541 808.535 759.461C807.527 761.357 806.063 762.833 804.143 763.889C802.247 764.921 800.003 765.438 797.411 765.438H789.959V740.237ZM797.411 762.557C800.411 762.557 802.739 761.681 804.395 759.929C806.051 758.177 806.879 755.813 806.879 752.837C806.879 749.837 806.051 747.473 804.395 745.745C802.763 743.993 800.435 743.117 797.411 743.117H793.091V762.557H797.411ZM812.961 756.257C812.961 754.385 813.321 752.741 814.041 751.325C814.785 749.909 815.817 748.817 817.137 748.049C818.457 747.257 819.969 746.861 821.673 746.861C823.353 746.861 824.841 747.209 826.137 747.905C827.433 748.601 828.453 749.609 829.197 750.929C829.941 752.249 830.337 753.797 830.385 755.573C830.385 755.837 830.361 756.257 830.313 756.833H816.057V757.085C816.105 758.885 816.657 760.325 817.713 761.405C818.769 762.485 820.149 763.025 821.853 763.025C823.173 763.025 824.289 762.701 825.201 762.053C826.137 761.381 826.761 760.457 827.073 759.281H830.061C829.701 761.153 828.801 762.689 827.361 763.889C825.921 765.065 824.157 765.654 822.069 765.654C820.245 765.654 818.649 765.269 817.281 764.501C815.913 763.709 814.845 762.605 814.077 761.189C813.333 759.749 812.961 758.105 812.961 756.257ZM827.325 754.385C827.181 752.825 826.593 751.613 825.561 750.749C824.553 749.885 823.269 749.453 821.709 749.453C820.317 749.453 819.093 749.909 818.037 750.821C816.981 751.733 816.381 752.921 816.237 754.385H827.325ZM831.214 747.077H834.382L839.926 762.089L845.434 747.077H848.53L841.654 765.438H838.09L831.214 747.077ZM849.383 756.257C849.383 754.385 849.743 752.741 850.463 751.325C851.207 749.909 852.239 748.817 853.559 748.049C854.879 747.257 856.391 746.861 858.095 746.861C859.775 746.861 861.263 747.209 862.559 747.905C863.855 748.601 864.875 749.609 865.619 750.929C866.363 752.249 866.759 753.797 866.807 755.573C866.807 755.837 866.783 756.257 866.735 756.833H852.479V757.085C852.527 758.885 853.079 760.325 854.135 761.405C855.191 762.485 856.571 763.025 858.275 763.025C859.595 763.025 860.711 762.701 861.623 762.053C862.559 761.381 863.183 760.457 863.495 759.281H866.483C866.123 761.153 865.223 762.689 863.783 763.889C862.343 765.065 860.579 765.654 858.491 765.654C856.667 765.654 855.071 765.269 853.703 764.501C852.335 763.709 851.267 762.605 850.499 761.189C849.755 759.749 849.383 758.105 849.383 756.257ZM863.747 754.385C863.603 752.825 863.015 751.613 861.983 750.749C860.975 749.885 859.691 749.453 858.131 749.453C856.739 749.453 855.515 749.909 854.459 750.821C853.403 751.733 852.803 752.921 852.659 754.385H863.747ZM870.175 740.237H873.127V765.438H870.175V740.237ZM885.631 765.654C883.855 765.654 882.271 765.257 880.879 764.465C879.511 763.673 878.443 762.569 877.675 761.153C876.907 759.737 876.523 758.105 876.523 756.257C876.523 754.409 876.907 752.777 877.675 751.361C878.443 749.945 879.511 748.841 880.879 748.049C882.271 747.257 883.855 746.861 885.631 746.861C887.407 746.861 888.979 747.257 890.347 748.049C891.739 748.841 892.819 749.945 893.587 751.361C894.355 752.777 894.739 754.409 894.739 756.257C894.739 758.105 894.355 759.737 893.587 761.153C892.819 762.569 891.739 763.673 890.347 764.465C888.979 765.257 887.407 765.654 885.631 765.654ZM885.631 763.025C886.831 763.025 887.887 762.737 888.799 762.161C889.735 761.585 890.455 760.781 890.959 759.749C891.463 758.717 891.715 757.553 891.715 756.257C891.715 754.961 891.463 753.797 890.959 752.765C890.455 751.733 889.735 750.929 888.799 750.353C887.887 749.777 886.831 749.489 885.631 749.489C884.431 749.489 883.363 749.777 882.427 750.353C881.515 750.929 880.807 751.733 880.303 752.765C879.799 753.797 879.547 754.961 879.547 756.257C879.547 757.553 879.799 758.717 880.303 759.749C880.807 760.781 881.515 761.585 882.427 762.161C883.363 762.737 884.431 763.025 885.631 763.025ZM907.376 746.861C909.08 746.861 910.592 747.233 911.912 747.977C913.256 748.721 914.3 749.801 915.044 751.217C915.812 752.633 916.196 754.313 916.196 756.257C916.196 758.105 915.812 759.737 915.044 761.153C914.3 762.569 913.256 763.673 911.912 764.465C910.568 765.257 909.056 765.654 907.376 765.654C905.888 765.654 904.616 765.389 903.56 764.861C902.504 764.309 901.676 763.565 901.076 762.629V772.638H898.124V747.077H900.68L901.076 750.029C902.612 747.917 904.712 746.861 907.376 746.861ZM907.088 763.025C908.912 763.025 910.376 762.401 911.48 761.153C912.608 759.881 913.172 758.249 913.172 756.257C913.172 754.265 912.608 752.645 911.48 751.397C910.376 750.125 908.912 749.489 907.088 749.489C905.912 749.489 904.856 749.777 903.92 750.353C903.008 750.905 902.3 751.697 901.796 752.729C901.292 753.737 901.04 754.889 901.04 756.186C901.04 757.505 901.292 758.693 901.796 759.749C902.3 760.781 903.008 761.585 903.92 762.161C904.856 762.737 905.912 763.025 907.088 763.025ZM918.922 756.257C918.922 754.385 919.282 752.741 920.002 751.325C920.746 749.909 921.778 748.817 923.098 748.049C924.418 747.257 925.93 746.861 927.634 746.861C929.314 746.861 930.802 747.209 932.098 747.905C933.394 748.601 934.414 749.609 935.158 750.929C935.902 752.249 936.298 753.797 936.346 755.573C936.346 755.837 936.322 756.257 936.274 756.833H922.018V757.085C922.066 758.885 922.618 760.325 923.674 761.405C924.73 762.485 926.11 763.025 927.814 763.025C929.134 763.025 930.25 762.701 931.162 762.053C932.098 761.381 932.722 760.457 933.034 759.281H936.022C935.662 761.153 934.762 762.689 933.322 763.889C931.882 765.065 930.118 765.654 928.03 765.654C926.206 765.654 924.61 765.269 923.242 764.501C921.874 763.709 920.806 762.605 920.038 761.189C919.294 759.749 918.922 758.105 918.922 756.257ZM933.286 754.385C933.142 752.825 932.554 751.613 931.522 750.749C930.514 749.885 929.23 749.453 927.67 749.453C926.278 749.453 925.054 749.909 923.998 750.821C922.942 751.733 922.342 752.921 922.198 754.385H933.286ZM949.038 747.077V749.957H947.562C945.81 749.957 944.55 750.545 943.782 751.721C943.038 752.897 942.666 754.349 942.666 756.077V765.438H939.714V747.077H942.27L942.666 749.849C943.194 749.009 943.878 748.337 944.718 747.833C945.558 747.329 946.722 747.077 948.21 747.077H949.038ZM953.374 759.389C953.422 760.493 953.902 761.393 954.814 762.089C955.75 762.785 956.95 763.133 958.414 763.133C959.71 763.133 960.754 762.881 961.546 762.377C962.362 761.849 962.77 761.165 962.77 760.325C962.77 759.605 962.578 759.053 962.194 758.669C961.81 758.285 961.306 758.021 960.682 757.877C960.082 757.733 959.218 757.589 958.09 757.445C956.506 757.253 955.21 757.001 954.202 756.689C953.194 756.377 952.378 755.885 951.754 755.213C951.13 754.517 950.818 753.569 950.818 752.369C950.818 751.289 951.118 750.329 951.718 749.489C952.342 748.649 953.182 748.001 954.238 747.545C955.294 747.065 956.482 746.825 957.802 746.825C959.962 746.825 961.714 747.329 963.058 748.337C964.426 749.345 965.182 750.785 965.326 752.657H962.374C962.254 751.697 961.786 750.905 960.97 750.281C960.154 749.657 959.134 749.345 957.91 749.345C956.662 749.345 955.654 749.609 954.886 750.137C954.118 750.641 953.734 751.313 953.734 752.153C953.734 752.777 953.914 753.257 954.274 753.593C954.634 753.929 955.09 754.157 955.642 754.277C956.218 754.397 957.082 754.529 958.234 754.673C959.842 754.865 961.162 755.129 962.194 755.465C963.25 755.801 964.09 756.341 964.714 757.085C965.362 757.829 965.686 758.837 965.686 760.109C965.686 761.213 965.362 762.185 964.714 763.025C964.066 763.865 963.19 764.513 962.086 764.969C960.982 765.425 959.758 765.654 958.414 765.654C956.014 765.654 954.082 765.101 952.618 763.997C951.178 762.893 950.446 761.357 950.422 759.389H953.374Z" fill="#4C4D5D"/>
        <path d="M668.023 210.193C668.143 211.897 668.827 213.265 670.075 214.297C671.323 215.305 672.907 215.809 674.827 215.809C676.555 215.809 677.947 215.437 679.003 214.693C680.083 213.925 680.623 212.869 680.623 211.525C680.623 210.541 680.323 209.761 679.723 209.186C679.147 208.609 678.391 208.189 677.455 207.925C676.543 207.637 675.295 207.361 673.711 207.097C671.191 206.665 669.187 205.957 667.699 204.973C666.211 203.989 665.467 202.393 665.467 200.185C665.467 198.769 665.827 197.521 666.547 196.441C667.267 195.337 668.275 194.485 669.571 193.885C670.891 193.285 672.391 192.985 674.071 192.985C675.847 192.985 677.419 193.309 678.787 193.957C680.155 194.605 681.235 195.517 682.027 196.693C682.819 197.845 683.263 199.177 683.359 200.689H680.263C680.071 199.225 679.411 198.049 678.283 197.161C677.155 196.273 675.751 195.829 674.071 195.829C672.391 195.829 671.059 196.201 670.075 196.945C669.091 197.665 668.599 198.685 668.599 200.005C668.599 200.965 668.887 201.721 669.463 202.273C670.039 202.801 670.783 203.209 671.695 203.497C672.607 203.761 673.855 204.025 675.439 204.289C677.959 204.721 679.975 205.441 681.487 206.449C682.999 207.433 683.755 209.029 683.755 211.237C683.755 212.677 683.371 213.961 682.603 215.089C681.859 216.217 680.803 217.093 679.435 217.717C678.091 218.341 676.543 218.654 674.791 218.654C672.823 218.654 671.107 218.305 669.643 217.609C668.179 216.889 667.039 215.893 666.223 214.621C665.431 213.325 664.999 211.849 664.927 210.193H668.023ZM703.102 200.077V218.438H700.546L700.15 215.989C698.758 217.765 696.802 218.654 694.282 218.654C692.098 218.654 690.346 217.981 689.026 216.637C687.706 215.293 687.046 213.181 687.046 210.301V200.077H689.998V210.121C689.998 212.017 690.406 213.469 691.222 214.477C692.062 215.461 693.25 215.953 694.786 215.953C696.466 215.953 697.774 215.353 698.71 214.153C699.67 212.953 700.15 211.321 700.15 209.257V200.077H703.102ZM716.378 199.861C718.082 199.861 719.594 200.233 720.914 200.977C722.258 201.721 723.302 202.801 724.046 204.217C724.814 205.633 725.198 207.313 725.198 209.257C725.198 211.105 724.814 212.737 724.046 214.153C723.302 215.569 722.258 216.673 720.914 217.465C719.57 218.257 718.058 218.654 716.378 218.654C714.89 218.654 713.618 218.389 712.562 217.861C711.506 217.309 710.678 216.565 710.078 215.629L709.682 218.438H707.126V193.237H710.078V203.029C711.614 200.917 713.714 199.861 716.378 199.861ZM716.09 216.025C717.914 216.025 719.378 215.401 720.482 214.153C721.61 212.881 722.174 211.249 722.174 209.257C722.174 207.265 721.61 205.645 720.482 204.397C719.378 203.125 717.914 202.489 716.09 202.489C714.914 202.489 713.858 202.777 712.922 203.353C712.01 203.905 711.302 204.697 710.798 205.729C710.294 206.737 710.042 207.889 710.042 209.186C710.042 210.505 710.294 211.693 710.798 212.749C711.302 213.781 712.01 214.585 712.922 215.161C713.858 215.737 714.914 216.025 716.09 216.025ZM728.603 209.438V206.989H740.591V209.438H728.603ZM744.894 193.237H752.346C754.938 193.237 757.182 193.765 759.078 194.821C760.998 195.853 762.462 197.317 763.47 199.213C764.502 201.109 765.018 203.317 765.018 205.837C765.018 208.333 764.502 210.541 763.47 212.461C762.462 214.357 760.998 215.833 759.078 216.889C757.182 217.921 754.938 218.438 752.346 218.438H744.894V193.237ZM752.346 215.557C755.346 215.557 757.674 214.681 759.33 212.929C760.986 211.177 761.814 208.813 761.814 205.837C761.814 202.837 760.986 200.473 759.33 198.745C757.698 196.993 755.37 196.117 752.346 196.117H748.026V215.557H752.346ZM765.834 218.438L775.446 193.237H779.154L788.73 218.438H785.382L782.718 211.633H771.738L769.074 218.438H765.834ZM772.674 208.789H781.782L777.21 196.657L772.674 208.789ZM813.604 205.837C813.604 208.285 813.088 210.481 812.056 212.425C811.048 214.369 809.632 215.893 807.808 216.997C805.984 218.101 803.908 218.654 801.58 218.654C799.252 218.654 797.176 218.101 795.352 216.997C793.528 215.893 792.1 214.369 791.068 212.425C790.06 210.481 789.556 208.285 789.556 205.837C789.556 203.389 790.06 201.193 791.068 199.249C792.1 197.305 793.528 195.781 795.352 194.677C797.176 193.573 799.252 193.021 801.58 193.021C803.908 193.021 805.984 193.573 807.808 194.677C809.632 195.781 811.048 197.305 812.056 199.249C813.088 201.193 813.604 203.389 813.604 205.837ZM792.76 205.837C792.76 207.757 793.132 209.473 793.876 210.985C794.62 212.473 795.652 213.649 796.972 214.513C798.316 215.353 799.852 215.773 801.58 215.773C803.308 215.773 804.832 215.353 806.152 214.513C807.496 213.649 808.54 212.473 809.284 210.985C810.028 209.473 810.4 207.757 810.4 205.837C810.4 203.917 810.028 202.213 809.284 200.725C808.54 199.213 807.496 198.037 806.152 197.197C804.832 196.333 803.308 195.901 801.58 195.901C799.852 195.901 798.316 196.333 796.972 197.197C795.652 198.037 794.62 199.213 793.876 200.725C793.132 202.213 792.76 203.917 792.76 205.837ZM625.503 236.237H644.979V239.117H636.807V261.438H633.675V239.117H625.503V236.237ZM653.114 261.654C651.338 261.654 649.754 261.257 648.362 260.465C646.994 259.673 645.926 258.569 645.158 257.153C644.39 255.737 644.006 254.105 644.006 252.257C644.006 250.409 644.39 248.777 645.158 247.361C645.926 245.945 646.994 244.841 648.362 244.049C649.754 243.257 651.338 242.861 653.114 242.861C654.89 242.861 656.462 243.257 657.83 244.049C659.222 244.841 660.302 245.945 661.07 247.361C661.838 248.777 662.222 250.409 662.222 252.257C662.222 254.105 661.838 255.737 661.07 257.153C660.302 258.569 659.222 259.673 657.83 260.465C656.462 261.257 654.89 261.654 653.114 261.654ZM653.114 259.025C654.314 259.025 655.37 258.737 656.282 258.161C657.218 257.585 657.938 256.781 658.442 255.749C658.946 254.717 659.198 253.553 659.198 252.257C659.198 250.961 658.946 249.797 658.442 248.765C657.938 247.733 657.218 246.929 656.282 246.353C655.37 245.777 654.314 245.489 653.114 245.489C651.914 245.489 650.846 245.777 649.91 246.353C648.998 246.929 648.29 247.733 647.786 248.765C647.282 249.797 647.03 250.961 647.03 252.257C647.03 253.553 647.282 254.717 647.786 255.749C648.29 256.781 648.998 257.585 649.91 258.161C650.846 258.737 651.914 259.025 653.114 259.025ZM665.607 236.237H668.559V252.941L677.883 243.077H681.411L674.355 250.601L681.915 261.438H678.351L672.231 252.725L668.559 256.577V261.438H665.607V236.237ZM682.502 252.257C682.502 250.385 682.862 248.741 683.582 247.325C684.326 245.909 685.358 244.817 686.678 244.049C687.998 243.257 689.51 242.861 691.214 242.861C692.894 242.861 694.382 243.209 695.678 243.905C696.974 244.601 697.994 245.609 698.738 246.929C699.482 248.249 699.878 249.797 699.926 251.573C699.926 251.837 699.902 252.257 699.854 252.833H685.598V253.085C685.646 254.885 686.198 256.325 687.254 257.405C688.31 258.485 689.69 259.025 691.394 259.025C692.714 259.025 693.83 258.701 694.742 258.053C695.678 257.381 696.302 256.457 696.614 255.281H699.602C699.242 257.153 698.342 258.689 696.902 259.889C695.462 261.065 693.698 261.654 691.61 261.654C689.786 261.654 688.19 261.269 686.822 260.501C685.454 259.709 684.386 258.605 683.618 257.189C682.874 255.749 682.502 254.105 682.502 252.257ZM696.866 250.385C696.722 248.825 696.134 247.613 695.102 246.749C694.094 245.885 692.81 245.453 691.25 245.453C689.858 245.453 688.634 245.909 687.578 246.821C686.522 247.733 685.922 248.921 685.778 250.385H696.866ZM712.294 242.861C714.526 242.861 716.314 243.533 717.658 244.877C719.026 246.221 719.71 248.333 719.71 251.213V261.438H716.758V251.393C716.758 249.497 716.326 248.057 715.462 247.073C714.622 246.065 713.398 245.561 711.79 245.561C710.062 245.561 708.706 246.161 707.722 247.361C706.738 248.561 706.246 250.193 706.246 252.257V261.438H703.294V243.077H705.85L706.246 245.561C707.638 243.761 709.654 242.861 712.294 242.861ZM733.328 236.201H736.46V247.181H749.492V236.201H752.624V261.438H749.492V250.061H736.46V261.438H733.328V236.201ZM765.543 261.654C763.767 261.654 762.183 261.257 760.791 260.465C759.423 259.673 758.355 258.569 757.587 257.153C756.819 255.737 756.435 254.105 756.435 252.257C756.435 250.409 756.819 248.777 757.587 247.361C758.355 245.945 759.423 244.841 760.791 244.049C762.183 243.257 763.767 242.861 765.543 242.861C767.319 242.861 768.891 243.257 770.259 244.049C771.651 244.841 772.731 245.945 773.499 247.361C774.267 248.777 774.651 250.409 774.651 252.257C774.651 254.105 774.267 255.737 773.499 257.153C772.731 258.569 771.651 259.673 770.259 260.465C768.891 261.257 767.319 261.654 765.543 261.654ZM765.543 259.025C766.743 259.025 767.799 258.737 768.711 258.161C769.647 257.585 770.367 256.781 770.871 255.749C771.375 254.717 771.627 253.553 771.627 252.257C771.627 250.961 771.375 249.797 770.871 248.765C770.367 247.733 769.647 246.929 768.711 246.353C767.799 245.777 766.743 245.489 765.543 245.489C764.343 245.489 763.275 245.777 762.339 246.353C761.427 246.929 760.719 247.733 760.215 248.765C759.711 249.797 759.459 250.961 759.459 252.257C759.459 253.553 759.711 254.717 760.215 255.749C760.719 256.781 761.427 257.585 762.339 258.161C763.275 258.737 764.343 259.025 765.543 259.025ZM778.037 236.237H780.989V261.438H778.037V236.237ZM802.457 236.237V261.438H799.901L799.505 258.485C797.969 260.597 795.869 261.654 793.205 261.654C791.501 261.654 789.977 261.281 788.633 260.537C787.313 259.793 786.269 258.713 785.501 257.297C784.757 255.881 784.385 254.201 784.385 252.257C784.385 250.409 784.757 248.777 785.501 247.361C786.269 245.945 787.325 244.841 788.669 244.049C790.013 243.257 791.525 242.861 793.205 242.861C794.693 242.861 795.965 243.137 797.021 243.689C798.077 244.217 798.905 244.949 799.505 245.885V236.237H802.457ZM793.493 259.025C794.669 259.025 795.713 258.749 796.625 258.197C797.561 257.621 798.281 256.829 798.785 255.821C799.289 254.789 799.541 253.625 799.541 252.329C799.541 251.009 799.289 249.833 798.785 248.801C798.281 247.745 797.561 246.929 796.625 246.353C795.713 245.777 794.669 245.489 793.493 245.489C791.669 245.489 790.193 246.125 789.065 247.397C787.961 248.645 787.409 250.265 787.409 252.257C787.409 254.249 787.961 255.881 789.065 257.153C790.193 258.401 791.669 259.025 793.493 259.025ZM805.83 252.257C805.83 250.385 806.19 248.741 806.91 247.325C807.654 245.909 808.686 244.817 810.006 244.049C811.326 243.257 812.838 242.861 814.542 242.861C816.222 242.861 817.71 243.209 819.006 243.905C820.302 244.601 821.322 245.609 822.066 246.929C822.81 248.249 823.206 249.797 823.254 251.573C823.254 251.837 823.23 252.257 823.182 252.833H808.926V253.085C808.974 254.885 809.526 256.325 810.582 257.405C811.638 258.485 813.018 259.025 814.722 259.025C816.042 259.025 817.158 258.701 818.07 258.053C819.006 257.381 819.63 256.457 819.942 255.281H822.93C822.57 257.153 821.67 258.689 820.23 259.889C818.79 261.065 817.026 261.654 814.938 261.654C813.114 261.654 811.518 261.269 810.15 260.501C808.782 259.709 807.714 258.605 806.946 257.189C806.202 255.749 805.83 254.105 805.83 252.257ZM820.194 250.385C820.05 248.825 819.462 247.613 818.43 246.749C817.422 245.885 816.138 245.453 814.578 245.453C813.186 245.453 811.962 245.909 810.906 246.821C809.85 247.733 809.25 248.921 809.106 250.385H820.194ZM835.946 243.077V245.957H834.47C832.718 245.957 831.458 246.545 830.69 247.721C829.946 248.897 829.574 250.349 829.574 252.077V261.438H826.622V243.077H829.178L829.574 245.849C830.102 245.009 830.786 244.337 831.626 243.833C832.466 243.329 833.63 243.077 835.118 243.077H835.946ZM840.282 255.389C840.33 256.493 840.81 257.393 841.722 258.089C842.658 258.785 843.858 259.133 845.322 259.133C846.618 259.133 847.662 258.881 848.454 258.377C849.27 257.849 849.678 257.165 849.678 256.325C849.678 255.605 849.486 255.053 849.102 254.669C848.718 254.285 848.214 254.021 847.59 253.877C846.99 253.733 846.126 253.589 844.998 253.445C843.414 253.253 842.118 253.001 841.11 252.689C840.102 252.377 839.286 251.885 838.662 251.213C838.038 250.517 837.726 249.569 837.726 248.369C837.726 247.289 838.026 246.329 838.626 245.489C839.25 244.649 840.09 244.001 841.146 243.545C842.202 243.065 843.39 242.825 844.71 242.825C846.87 242.825 848.622 243.329 849.966 244.337C851.334 245.345 852.09 246.785 852.234 248.657H849.282C849.162 247.697 848.694 246.905 847.878 246.281C847.062 245.657 846.042 245.345 844.818 245.345C843.57 245.345 842.562 245.609 841.794 246.137C841.026 246.641 840.642 247.313 840.642 248.153C840.642 248.777 840.822 249.257 841.182 249.593C841.542 249.929 841.998 250.157 842.55 250.277C843.126 250.397 843.99 250.529 845.142 250.673C846.75 250.865 848.07 251.129 849.102 251.465C850.158 251.801 850.998 252.341 851.622 253.085C852.27 253.829 852.594 254.837 852.594 256.109C852.594 257.213 852.27 258.185 851.622 259.025C850.974 259.865 850.098 260.513 848.994 260.969C847.89 261.425 846.666 261.654 845.322 261.654C842.922 261.654 840.99 261.101 839.526 259.997C838.086 258.893 837.354 257.357 837.33 255.389H840.282Z" fill="#4C4D5D"/>
        <path d="M1393.18 981.837C1393.18 979.317 1393.67 977.085 1394.65 975.141C1395.64 973.197 1397.04 971.697 1398.86 970.641C1400.69 969.561 1402.8 969.021 1405.2 969.021C1407.98 969.021 1410.31 969.777 1412.18 971.289C1414.08 972.801 1415.27 974.865 1415.75 977.481H1412.62C1412.16 975.729 1411.26 974.361 1409.92 973.377C1408.6 972.393 1406.98 971.901 1405.06 971.901C1403.33 971.901 1401.8 972.321 1400.48 973.161C1399.16 974.001 1398.14 975.177 1397.42 976.689C1396.73 978.177 1396.38 979.893 1396.38 981.837C1396.38 983.757 1396.73 985.473 1397.42 986.985C1398.14 988.497 1399.16 989.673 1400.48 990.513C1401.8 991.353 1403.33 991.773 1405.06 991.773C1407 991.773 1408.62 991.293 1409.92 990.333C1411.21 989.349 1412.1 987.969 1412.58 986.193H1415.71C1415.23 988.809 1414.06 990.873 1412.18 992.385C1410.34 993.897 1408.01 994.654 1405.2 994.654C1402.8 994.654 1400.69 994.125 1398.86 993.069C1397.04 991.989 1395.64 990.489 1394.65 988.569C1393.67 986.625 1393.18 984.381 1393.18 981.837ZM1427.7 994.654C1425.92 994.654 1424.34 994.257 1422.95 993.465C1421.58 992.673 1420.51 991.569 1419.74 990.153C1418.97 988.737 1418.59 987.105 1418.59 985.257C1418.59 983.409 1418.97 981.777 1419.74 980.361C1420.51 978.945 1421.58 977.841 1422.95 977.049C1424.34 976.257 1425.92 975.861 1427.7 975.861C1429.47 975.861 1431.05 976.257 1432.41 977.049C1433.81 977.841 1434.89 978.945 1435.65 980.361C1436.42 981.777 1436.81 983.409 1436.81 985.257C1436.81 987.105 1436.42 988.737 1435.65 990.153C1434.89 991.569 1433.81 992.673 1432.41 993.465C1431.05 994.257 1429.47 994.654 1427.7 994.654ZM1427.7 992.025C1428.9 992.025 1429.95 991.737 1430.87 991.161C1431.8 990.585 1432.52 989.781 1433.03 988.749C1433.53 987.717 1433.78 986.553 1433.78 985.257C1433.78 983.961 1433.53 982.797 1433.03 981.765C1432.52 980.733 1431.8 979.929 1430.87 979.353C1429.95 978.777 1428.9 978.489 1427.7 978.489C1426.5 978.489 1425.43 978.777 1424.49 979.353C1423.58 979.929 1422.87 980.733 1422.37 981.765C1421.87 982.797 1421.61 983.961 1421.61 985.257C1421.61 986.553 1421.87 987.717 1422.37 988.749C1422.87 989.781 1423.58 990.585 1424.49 991.161C1425.43 991.737 1426.5 992.025 1427.7 992.025ZM1460.67 975.861C1462.74 975.861 1464.41 976.509 1465.68 977.805C1466.97 979.101 1467.62 981.117 1467.62 983.854V994.438H1464.67V984.033C1464.67 982.257 1464.29 980.901 1463.52 979.965C1462.77 979.029 1461.71 978.561 1460.31 978.561C1458.78 978.561 1457.57 979.101 1456.68 980.181C1455.81 981.261 1455.38 982.737 1455.38 984.609V994.438H1452.43V984.033C1452.43 982.257 1452.05 980.901 1451.28 979.965C1450.51 979.029 1449.42 978.561 1448 978.561C1446.51 978.561 1445.33 979.137 1444.44 980.289C1443.57 981.417 1443.14 982.905 1443.14 984.753V994.438H1440.19V976.077H1442.75L1443.14 978.597C1444.46 976.773 1446.25 975.861 1448.51 975.861C1449.83 975.861 1450.99 976.161 1452 976.761C1453.03 977.337 1453.8 978.201 1454.3 979.353C1455.62 977.025 1457.75 975.861 1460.67 975.861ZM1491.89 975.861C1493.96 975.861 1495.63 976.509 1496.9 977.805C1498.19 979.101 1498.84 981.117 1498.84 983.854V994.438H1495.89V984.033C1495.89 982.257 1495.51 980.901 1494.74 979.965C1493.99 979.029 1492.93 978.561 1491.53 978.561C1490 978.561 1488.79 979.101 1487.9 980.181C1487.03 981.261 1486.6 982.737 1486.6 984.609V994.438H1483.65V984.033C1483.65 982.257 1483.27 980.901 1482.5 979.965C1481.73 979.029 1480.64 978.561 1479.22 978.561C1477.73 978.561 1476.55 979.137 1475.66 980.289C1474.79 981.417 1474.36 982.905 1474.36 984.753V994.438H1471.41V976.077H1473.97L1474.36 978.597C1475.68 976.773 1477.47 975.861 1479.73 975.861C1481.05 975.861 1482.21 976.161 1483.22 976.761C1484.25 977.337 1485.02 978.201 1485.52 979.353C1486.84 977.025 1488.97 975.861 1491.89 975.861ZM1518.43 976.077V994.438H1515.88L1515.48 991.989C1514.09 993.765 1512.13 994.654 1509.61 994.654C1507.43 994.654 1505.68 993.981 1504.36 992.637C1503.04 991.293 1502.38 989.181 1502.38 986.301V976.077H1505.33V986.121C1505.33 988.017 1505.74 989.469 1506.55 990.477C1507.39 991.461 1508.58 991.953 1510.12 991.953C1511.8 991.953 1513.1 991.353 1514.04 990.153C1515 988.953 1515.48 987.321 1515.48 985.257V976.077H1518.43ZM1531.46 975.861C1533.69 975.861 1535.48 976.533 1536.82 977.877C1538.19 979.221 1538.87 981.333 1538.87 984.213V994.438H1535.92V984.393C1535.92 982.497 1535.49 981.057 1534.62 980.073C1533.78 979.065 1532.56 978.561 1530.95 978.561C1529.22 978.561 1527.87 979.161 1526.88 980.361C1525.9 981.561 1525.41 983.193 1525.41 985.257V994.438H1522.46V976.077H1525.01L1525.41 978.561C1526.8 976.761 1528.82 975.861 1531.46 975.861ZM1544.11 968.985C1544.66 968.985 1545.12 969.165 1545.48 969.525C1545.84 969.885 1546.02 970.341 1546.02 970.893C1546.02 971.445 1545.84 971.901 1545.48 972.261C1545.12 972.621 1544.66 972.801 1544.11 972.801C1543.56 972.801 1543.1 972.621 1542.74 972.261C1542.38 971.901 1542.2 971.445 1542.2 970.893C1542.2 970.341 1542.38 969.885 1542.74 969.525C1543.1 969.165 1543.56 968.985 1544.11 968.985ZM1542.64 976.077H1545.59V994.438H1542.64V976.077ZM1550.86 978.777H1547.54V976.077H1550.86V970.929H1553.81V976.077H1558.45V978.777H1553.81V989.613C1553.81 990.381 1553.95 990.933 1554.24 991.269C1554.55 991.581 1555.08 991.737 1555.82 991.737H1559.03V994.438H1555.64C1553.92 994.438 1552.68 994.053 1551.94 993.285C1551.22 992.517 1550.86 991.305 1550.86 989.649V978.777ZM1562.42 976.077L1568.08 991.053L1573.55 976.077H1576.68L1568.22 997.534C1567.79 998.638 1567.4 999.465 1567.07 1000.02C1566.73 1000.57 1566.31 1000.98 1565.81 1001.24C1565.3 1001.51 1564.63 1001.64 1563.79 1001.64H1560.26V998.938H1562.89C1563.47 998.938 1563.9 998.878 1564.19 998.758C1564.48 998.638 1564.7 998.434 1564.87 998.146C1565.06 997.882 1565.29 997.426 1565.56 996.778L1566.49 994.582L1559.29 976.077H1562.42Z" fill="#4C4D5D"/>
        <path d="M377.896 520.237H385.348C387.94 520.237 390.184 520.765 392.08 521.821C394 522.853 395.464 524.317 396.472 526.213C397.504 528.109 398.02 530.317 398.02 532.837C398.02 535.333 397.504 537.541 396.472 539.461C395.464 541.357 394 542.833 392.08 543.889C390.184 544.921 387.94 545.438 385.348 545.438H377.896V520.237ZM385.348 542.557C388.348 542.557 390.676 541.681 392.332 539.929C393.988 538.177 394.816 535.813 394.816 532.837C394.816 529.837 393.988 527.473 392.332 525.745C390.7 523.993 388.372 523.117 385.348 523.117H381.028V542.557H385.348ZM398.836 545.438L408.448 520.237H412.156L421.732 545.438H418.384L415.72 538.633H404.74L402.076 545.438H398.836ZM405.676 535.789H414.784L410.212 523.657L405.676 535.789ZM446.606 532.837C446.606 535.285 446.09 537.481 445.058 539.425C444.05 541.369 442.634 542.893 440.81 543.997C438.986 545.101 436.91 545.654 434.582 545.654C432.254 545.654 430.178 545.101 428.354 543.997C426.53 542.893 425.102 541.369 424.07 539.425C423.062 537.481 422.558 535.285 422.558 532.837C422.558 530.389 423.062 528.193 424.07 526.249C425.102 524.305 426.53 522.781 428.354 521.677C430.178 520.573 432.254 520.021 434.582 520.021C436.91 520.021 438.986 520.573 440.81 521.677C442.634 522.781 444.05 524.305 445.058 526.249C446.09 528.193 446.606 530.389 446.606 532.837ZM425.762 532.837C425.762 534.757 426.134 536.473 426.878 537.985C427.622 539.473 428.654 540.649 429.974 541.513C431.318 542.353 432.854 542.773 434.582 542.773C436.31 542.773 437.834 542.353 439.154 541.513C440.498 540.649 441.542 539.473 442.286 537.985C443.03 536.473 443.402 534.757 443.402 532.837C443.402 530.917 443.03 529.213 442.286 527.725C441.542 526.213 440.498 525.037 439.154 524.197C437.834 523.333 436.31 522.901 434.582 522.901C432.854 522.901 431.318 523.333 429.974 524.197C428.654 525.037 427.622 526.213 426.878 527.725C426.134 529.213 425.762 530.917 425.762 532.837ZM452.436 539.389C452.484 540.493 452.964 541.393 453.876 542.089C454.812 542.785 456.012 543.133 457.476 543.133C458.772 543.133 459.816 542.881 460.608 542.377C461.424 541.849 461.832 541.165 461.832 540.325C461.832 539.605 461.64 539.053 461.256 538.669C460.872 538.285 460.368 538.021 459.744 537.877C459.144 537.733 458.28 537.589 457.152 537.445C455.568 537.253 454.272 537.001 453.264 536.689C452.256 536.377 451.44 535.885 450.816 535.213C450.192 534.517 449.88 533.569 449.88 532.369C449.88 531.289 450.18 530.329 450.78 529.489C451.404 528.649 452.244 528.001 453.3 527.545C454.356 527.065 455.544 526.825 456.864 526.825C459.024 526.825 460.776 527.329 462.12 528.337C463.488 529.345 464.244 530.785 464.388 532.657H461.436C461.316 531.697 460.848 530.905 460.032 530.281C459.216 529.657 458.196 529.345 456.972 529.345C455.724 529.345 454.716 529.609 453.948 530.137C453.18 530.641 452.796 531.313 452.796 532.153C452.796 532.777 452.976 533.257 453.336 533.593C453.696 533.929 454.152 534.157 454.704 534.277C455.28 534.397 456.144 534.529 457.296 534.673C458.904 534.865 460.224 535.129 461.256 535.465C462.312 535.801 463.152 536.341 463.776 537.085C464.424 537.829 464.748 538.837 464.748 540.109C464.748 541.213 464.424 542.185 463.776 543.025C463.128 543.865 462.252 544.513 461.148 544.969C460.044 545.425 458.82 545.654 457.476 545.654C455.076 545.654 453.144 545.101 451.68 543.997C450.24 542.893 449.508 541.357 449.484 539.389H452.436Z" fill="#4C4D5D"/>
        <path d="M12.6974 300.237C14.3534 300.237 15.8174 300.561 17.0894 301.209C18.3614 301.833 19.3334 302.733 20.0054 303.909C20.7014 305.061 21.0494 306.417 21.0494 307.977C21.0494 309.537 20.7014 310.905 20.0054 312.081C19.3094 313.257 18.3254 314.169 17.0534 314.817C15.8054 315.441 14.3534 315.753 12.6974 315.753H6.14543V325.438H3.01343V300.237H12.6974ZM6.14543 312.873H12.4094C14.0654 312.873 15.3854 312.429 16.3694 311.541C17.3534 310.653 17.8454 309.465 17.8454 307.977C17.8454 306.489 17.3534 305.313 16.3694 304.449C15.4094 303.561 14.1014 303.117 12.4454 303.117H6.14543V312.873ZM33.2804 307.077V309.957H31.8044C30.0524 309.957 28.7924 310.545 28.0244 311.721C27.2804 312.897 26.9084 314.349 26.9084 316.077V325.438H23.9564V307.077H26.5124L26.9084 309.849C27.4364 309.009 28.1204 308.337 28.9604 307.833C29.8004 307.329 30.9644 307.077 32.4524 307.077H33.2804ZM43.3852 325.654C41.6092 325.654 40.0252 325.257 38.6332 324.465C37.2652 323.673 36.1972 322.569 35.4292 321.153C34.6612 319.737 34.2772 318.105 34.2772 316.257C34.2772 314.409 34.6612 312.777 35.4292 311.361C36.1972 309.945 37.2652 308.841 38.6332 308.049C40.0252 307.257 41.6092 306.861 43.3852 306.861C45.1612 306.861 46.7332 307.257 48.1012 308.049C49.4932 308.841 50.5732 309.945 51.3412 311.361C52.1092 312.777 52.4932 314.409 52.4932 316.257C52.4932 318.105 52.1092 319.737 51.3412 321.153C50.5732 322.569 49.4932 323.673 48.1012 324.465C46.7332 325.257 45.1612 325.654 43.3852 325.654ZM43.3852 323.025C44.5852 323.025 45.6412 322.737 46.5532 322.161C47.4892 321.585 48.2092 320.781 48.7132 319.749C49.2172 318.717 49.4692 317.553 49.4692 316.257C49.4692 314.961 49.2172 313.797 48.7132 312.765C48.2092 311.733 47.4892 310.929 46.5532 310.353C45.6412 309.777 44.5852 309.489 43.3852 309.489C42.1852 309.489 41.1172 309.777 40.1812 310.353C39.2692 310.929 38.5612 311.733 38.0572 312.765C37.5532 313.797 37.3012 314.961 37.3012 316.257C37.3012 317.553 37.5532 318.717 38.0572 319.749C38.5612 320.781 39.2692 321.585 40.1812 322.161C41.1172 322.737 42.1852 323.025 43.3852 323.025ZM56.8914 309.777H53.5794V307.077H56.8914V301.929H59.8434V307.077H64.4874V309.777H59.8434V320.613C59.8434 321.381 59.9874 321.933 60.2754 322.269C60.5874 322.581 61.1154 322.737 61.8594 322.737H65.0634V325.438H61.6794C59.9514 325.438 58.7154 325.053 57.9714 324.285C57.2514 323.517 56.8914 322.305 56.8914 320.649V309.777ZM75.1664 325.654C73.3904 325.654 71.8064 325.257 70.4144 324.465C69.0464 323.673 67.9784 322.569 67.2104 321.153C66.4424 319.737 66.0584 318.105 66.0584 316.257C66.0584 314.409 66.4424 312.777 67.2104 311.361C67.9784 309.945 69.0464 308.841 70.4144 308.049C71.8064 307.257 73.3904 306.861 75.1664 306.861C76.9424 306.861 78.5144 307.257 79.8824 308.049C81.2744 308.841 82.3544 309.945 83.1224 311.361C83.8904 312.777 84.2744 314.409 84.2744 316.257C84.2744 318.105 83.8904 319.737 83.1224 321.153C82.3544 322.569 81.2744 323.673 79.8824 324.465C78.5144 325.257 76.9424 325.654 75.1664 325.654ZM75.1664 323.025C76.3664 323.025 77.4224 322.737 78.3344 322.161C79.2704 321.585 79.9904 320.781 80.4944 319.749C80.9984 318.717 81.2504 317.553 81.2504 316.257C81.2504 314.961 80.9984 313.797 80.4944 312.765C79.9904 311.733 79.2704 310.929 78.3344 310.353C77.4224 309.777 76.3664 309.489 75.1664 309.489C73.9664 309.489 72.8984 309.777 71.9624 310.353C71.0504 310.929 70.3424 311.733 69.8384 312.765C69.3344 313.797 69.0824 314.961 69.0824 316.257C69.0824 317.553 69.3344 318.717 69.8384 319.749C70.3424 320.781 71.0504 321.585 71.9624 322.161C72.8984 322.737 73.9664 323.025 75.1664 323.025ZM104.04 319.101C103.656 321.141 102.756 322.749 101.34 323.925C99.9236 325.077 98.1236 325.654 95.9396 325.654C94.1636 325.654 92.6036 325.257 91.2596 324.465C89.9156 323.673 88.8716 322.569 88.1276 321.153C87.3836 319.713 87.0116 318.069 87.0116 316.221C87.0116 314.373 87.3836 312.741 88.1276 311.325C88.8956 309.909 89.9636 308.817 91.3316 308.049C92.6996 307.257 94.2716 306.861 96.0476 306.861C98.2076 306.861 99.9836 307.437 101.376 308.589C102.792 309.741 103.68 311.325 104.04 313.341H101.052C100.764 312.165 100.164 311.229 99.2516 310.533C98.3396 309.837 97.2356 309.489 95.9396 309.489C94.1876 309.489 92.7596 310.113 91.6556 311.361C90.5756 312.609 90.0356 314.229 90.0356 316.221C90.0356 318.237 90.5756 319.881 91.6556 321.153C92.7596 322.401 94.1876 323.025 95.9396 323.025C97.2836 323.025 98.4116 322.677 99.3236 321.981C100.236 321.285 100.824 320.325 101.088 319.101H104.04ZM115.526 325.654C113.75 325.654 112.166 325.257 110.774 324.465C109.406 323.673 108.338 322.569 107.57 321.153C106.802 319.737 106.418 318.105 106.418 316.257C106.418 314.409 106.802 312.777 107.57 311.361C108.338 309.945 109.406 308.841 110.774 308.049C112.166 307.257 113.75 306.861 115.526 306.861C117.302 306.861 118.874 307.257 120.242 308.049C121.634 308.841 122.714 309.945 123.482 311.361C124.25 312.777 124.634 314.409 124.634 316.257C124.634 318.105 124.25 319.737 123.482 321.153C122.714 322.569 121.634 323.673 120.242 324.465C118.874 325.257 117.302 325.654 115.526 325.654ZM115.526 323.025C116.726 323.025 117.782 322.737 118.694 322.161C119.63 321.585 120.35 320.781 120.854 319.749C121.358 318.717 121.61 317.553 121.61 316.257C121.61 314.961 121.358 313.797 120.854 312.765C120.35 311.733 119.63 310.929 118.694 310.353C117.782 309.777 116.726 309.489 115.526 309.489C114.326 309.489 113.258 309.777 112.322 310.353C111.41 310.929 110.702 311.733 110.198 312.765C109.694 313.797 109.442 314.961 109.442 316.257C109.442 317.553 109.694 318.717 110.198 319.749C110.702 320.781 111.41 321.585 112.322 322.161C113.258 322.737 114.326 323.025 115.526 323.025ZM128.019 300.237H130.971V325.438H128.019V300.237ZM137.319 319.389C137.367 320.493 137.847 321.393 138.759 322.089C139.695 322.785 140.895 323.133 142.359 323.133C143.655 323.133 144.699 322.881 145.491 322.377C146.307 321.849 146.715 321.165 146.715 320.325C146.715 319.605 146.523 319.053 146.139 318.669C145.755 318.285 145.251 318.021 144.627 317.877C144.027 317.733 143.163 317.589 142.035 317.445C140.451 317.253 139.155 317.001 138.147 316.689C137.139 316.377 136.323 315.885 135.699 315.213C135.075 314.517 134.763 313.569 134.763 312.369C134.763 311.289 135.063 310.329 135.663 309.489C136.287 308.649 137.127 308.001 138.183 307.545C139.239 307.065 140.427 306.825 141.747 306.825C143.907 306.825 145.659 307.329 147.003 308.337C148.371 309.345 149.127 310.785 149.271 312.657H146.319C146.199 311.697 145.731 310.905 144.915 310.281C144.099 309.657 143.079 309.345 141.855 309.345C140.607 309.345 139.599 309.609 138.831 310.137C138.063 310.641 137.679 311.313 137.679 312.153C137.679 312.777 137.859 313.257 138.219 313.593C138.579 313.929 139.035 314.157 139.587 314.277C140.163 314.397 141.027 314.529 142.179 314.673C143.787 314.865 145.107 315.129 146.139 315.465C147.195 315.801 148.035 316.341 148.659 317.085C149.307 317.829 149.631 318.837 149.631 320.109C149.631 321.213 149.307 322.185 148.659 323.025C148.011 323.865 147.135 324.513 146.031 324.969C144.927 325.425 143.703 325.654 142.359 325.654C139.959 325.654 138.027 325.101 136.563 323.997C135.123 322.893 134.391 321.357 134.367 319.389H137.319Z" fill="#4C4D5D"/>
        <path d="M1015.85 23.8375C1015.85 21.3175 1016.34 19.0855 1017.32 17.1415C1018.31 15.1975 1019.71 13.6975 1021.53 12.6415C1023.36 11.5615 1025.47 11.0215 1027.87 11.0215C1030.65 11.0215 1032.98 11.7775 1034.85 13.2895C1036.75 14.8015 1037.94 16.8655 1038.42 19.4815H1035.29C1034.83 17.7295 1033.93 16.3615 1032.59 15.3775C1031.27 14.3935 1029.65 13.9015 1027.73 13.9015C1026 13.9015 1024.47 14.3215 1023.15 15.1615C1021.83 16.0015 1020.81 17.1775 1020.09 18.6895C1019.4 20.1775 1019.05 21.8935 1019.05 23.8375C1019.05 25.7575 1019.4 27.4735 1020.09 28.9855C1020.81 30.4975 1021.83 31.6735 1023.15 32.5135C1024.47 33.3535 1026 33.7735 1027.73 33.7735C1029.67 33.7735 1031.29 33.2935 1032.59 32.3335C1033.88 31.3495 1034.77 29.9695 1035.25 28.1935H1038.38C1037.9 30.8095 1036.73 32.8735 1034.85 34.3855C1033.01 35.8975 1030.68 36.6535 1027.87 36.6535C1025.47 36.6535 1023.36 36.1255 1021.53 35.0695C1019.71 33.9895 1018.31 32.4895 1017.32 30.5695C1016.34 28.6255 1015.85 26.3815 1015.85 23.8375ZM1050.37 36.6535C1048.59 36.6535 1047.01 36.2575 1045.62 35.4655C1044.25 34.6735 1043.18 33.5695 1042.41 32.1535C1041.64 30.7375 1041.26 29.1055 1041.26 27.2575C1041.26 25.4095 1041.64 23.7775 1042.41 22.3615C1043.18 20.9455 1044.25 19.8415 1045.62 19.0495C1047.01 18.2575 1048.59 17.8615 1050.37 17.8615C1052.14 17.8615 1053.72 18.2575 1055.08 19.0495C1056.48 19.8415 1057.56 20.9455 1058.32 22.3615C1059.09 23.7775 1059.48 25.4095 1059.48 27.2575C1059.48 29.1055 1059.09 30.7375 1058.32 32.1535C1057.56 33.5695 1056.48 34.6735 1055.08 35.4655C1053.72 36.2575 1052.14 36.6535 1050.37 36.6535ZM1050.37 34.0255C1051.57 34.0255 1052.62 33.7375 1053.54 33.1615C1054.47 32.5855 1055.19 31.7815 1055.7 30.7495C1056.2 29.7175 1056.45 28.5535 1056.45 27.2575C1056.45 25.9615 1056.2 24.7975 1055.7 23.7655C1055.19 22.7335 1054.47 21.9295 1053.54 21.3535C1052.62 20.7775 1051.57 20.4895 1050.37 20.4895C1049.17 20.4895 1048.1 20.7775 1047.16 21.3535C1046.25 21.9295 1045.54 22.7335 1045.04 23.7655C1044.54 24.7975 1044.28 25.9615 1044.28 27.2575C1044.28 28.5535 1044.54 29.7175 1045.04 30.7495C1045.54 31.7815 1046.25 32.5855 1047.16 33.1615C1048.1 33.7375 1049.17 34.0255 1050.37 34.0255ZM1071.86 17.8615C1074.09 17.8615 1075.88 18.5335 1077.22 19.8775C1078.59 21.2215 1079.28 23.3335 1079.28 26.2135V36.4375H1076.32V26.3935C1076.32 24.4975 1075.89 23.0575 1075.03 22.0735C1074.19 21.0655 1072.96 20.5615 1071.36 20.5615C1069.63 20.5615 1068.27 21.1615 1067.29 22.3615C1066.3 23.5615 1065.81 25.1935 1065.81 27.2575V36.4375H1062.86V18.0775H1065.42L1065.81 20.5615C1067.2 18.7615 1069.22 17.8615 1071.86 17.8615ZM1084.26 20.7775H1080.95V18.0775H1084.26V12.9295H1087.22V18.0775H1091.86V20.7775H1087.22V31.6135C1087.22 32.3815 1087.36 32.9335 1087.65 33.2695C1087.96 33.5815 1088.49 33.7375 1089.23 33.7375H1092.44V36.4375H1089.05C1087.32 36.4375 1086.09 36.0535 1085.34 35.2855C1084.62 34.5175 1084.26 33.3055 1084.26 31.6495V20.7775ZM1103.86 18.0775V20.9575H1102.38C1100.63 20.9575 1099.37 21.5455 1098.6 22.7215C1097.86 23.8975 1097.49 25.3495 1097.49 27.0775V36.4375H1094.54V18.0775H1097.09L1097.49 20.8495C1098.02 20.0095 1098.7 19.3375 1099.54 18.8335C1100.38 18.3295 1101.54 18.0775 1103.03 18.0775H1103.86ZM1108.04 10.9855C1108.59 10.9855 1109.04 11.1655 1109.4 11.5255C1109.76 11.8855 1109.94 12.3415 1109.94 12.8935C1109.94 13.4455 1109.76 13.9015 1109.4 14.2615C1109.04 14.6215 1108.59 14.8015 1108.04 14.8015C1107.48 14.8015 1107.03 14.6215 1106.67 14.2615C1106.31 13.9015 1106.13 13.4455 1106.13 12.8935C1106.13 12.3415 1106.31 11.8855 1106.67 11.5255C1107.03 11.1655 1107.48 10.9855 1108.04 10.9855ZM1106.56 18.0775H1109.51V36.4375H1106.56V18.0775ZM1122.81 17.8615C1124.51 17.8615 1126.02 18.2335 1127.34 18.9775C1128.69 19.7215 1129.73 20.8015 1130.48 22.2175C1131.24 23.6335 1131.63 25.3135 1131.63 27.2575C1131.63 29.1055 1131.24 30.7375 1130.48 32.1535C1129.73 33.5695 1128.69 34.6735 1127.34 35.4655C1126 36.2575 1124.49 36.6535 1122.81 36.6535C1121.32 36.6535 1120.05 36.3895 1118.99 35.8615C1117.94 35.3095 1117.11 34.5655 1116.51 33.6295L1116.11 36.4375H1113.56V11.2375H1116.51V21.0295C1118.04 18.9175 1120.14 17.8615 1122.81 17.8615ZM1122.52 34.0255C1124.34 34.0255 1125.81 33.4015 1126.91 32.1535C1128.04 30.8815 1128.6 29.2495 1128.6 27.2575C1128.6 25.2655 1128.04 23.6455 1126.91 22.3975C1125.81 21.1255 1124.34 20.4895 1122.52 20.4895C1121.34 20.4895 1120.29 20.7775 1119.35 21.3535C1118.44 21.9055 1117.73 22.6975 1117.23 23.7295C1116.72 24.7375 1116.47 25.8895 1116.47 27.1855C1116.47 28.5055 1116.72 29.6935 1117.23 30.7495C1117.73 31.7815 1118.44 32.5855 1119.35 33.1615C1120.29 33.7375 1121.34 34.0255 1122.52 34.0255ZM1150.81 18.0775V36.4375H1148.25L1147.85 33.9895C1146.46 35.7655 1144.51 36.6535 1141.99 36.6535C1139.8 36.6535 1138.05 35.9815 1136.73 34.6375C1135.41 33.2935 1134.75 31.1815 1134.75 28.3015V18.0775H1137.7V28.1215C1137.7 30.0175 1138.11 31.4695 1138.93 32.4775C1139.77 33.4615 1140.95 33.9535 1142.49 33.9535C1144.17 33.9535 1145.48 33.3535 1146.41 32.1535C1147.37 30.9535 1147.85 29.3215 1147.85 27.2575V18.0775H1150.81ZM1156.12 20.7775H1152.81V18.0775H1156.12V12.9295H1159.08V18.0775H1163.72V20.7775H1159.08V31.6135C1159.08 32.3815 1159.22 32.9335 1159.51 33.2695C1159.82 33.5815 1160.35 33.7375 1161.09 33.7375H1164.3V36.4375H1160.91C1159.18 36.4375 1157.95 36.0535 1157.2 35.2855C1156.48 34.5175 1156.12 33.3055 1156.12 31.6495V20.7775ZM1174.4 36.6535C1172.62 36.6535 1171.04 36.2575 1169.65 35.4655C1168.28 34.6735 1167.21 33.5695 1166.44 32.1535C1165.67 30.7375 1165.29 29.1055 1165.29 27.2575C1165.29 25.4095 1165.67 23.7775 1166.44 22.3615C1167.21 20.9455 1168.28 19.8415 1169.65 19.0495C1171.04 18.2575 1172.62 17.8615 1174.4 17.8615C1176.17 17.8615 1177.75 18.2575 1179.11 19.0495C1180.51 19.8415 1181.59 20.9455 1182.35 22.3615C1183.12 23.7775 1183.51 25.4095 1183.51 27.2575C1183.51 29.1055 1183.12 30.7375 1182.35 32.1535C1181.59 33.5695 1180.51 34.6735 1179.11 35.4655C1177.75 36.2575 1176.17 36.6535 1174.4 36.6535ZM1174.4 34.0255C1175.6 34.0255 1176.65 33.7375 1177.57 33.1615C1178.5 32.5855 1179.22 31.7815 1179.73 30.7495C1180.23 29.7175 1180.48 28.5535 1180.48 27.2575C1180.48 25.9615 1180.23 24.7975 1179.73 23.7655C1179.22 22.7335 1178.5 21.9295 1177.57 21.3535C1176.65 20.7775 1175.6 20.4895 1174.4 20.4895C1173.2 20.4895 1172.13 20.7775 1171.19 21.3535C1170.28 21.9295 1169.57 22.7335 1169.07 23.7655C1168.57 24.7975 1168.31 25.9615 1168.31 27.2575C1168.31 28.5535 1168.57 29.7175 1169.07 30.7495C1169.57 31.7815 1170.28 32.5855 1171.19 33.1615C1172.13 33.7375 1173.2 34.0255 1174.4 34.0255ZM1196.22 18.0775V20.9575H1194.74C1192.99 20.9575 1191.73 21.5455 1190.96 22.7215C1190.22 23.8975 1189.84 25.3495 1189.84 27.0775V36.4375H1186.89V18.0775H1189.45L1189.84 20.8495C1190.37 20.0095 1191.06 19.3375 1191.9 18.8335C1192.74 18.3295 1193.9 18.0775 1195.39 18.0775H1196.22ZM1200.55 30.3895C1200.6 31.4935 1201.08 32.3935 1201.99 33.0895C1202.93 33.7855 1204.13 34.1335 1205.59 34.1335C1206.89 34.1335 1207.93 33.8815 1208.72 33.3775C1209.54 32.8495 1209.95 32.1655 1209.95 31.3255C1209.95 30.6055 1209.76 30.0535 1209.37 29.6695C1208.99 29.2855 1208.48 29.0215 1207.86 28.8775C1207.26 28.7335 1206.4 28.5895 1205.27 28.4455C1203.68 28.2535 1202.39 28.0015 1201.38 27.6895C1200.37 27.3775 1199.56 26.8855 1198.93 26.2135C1198.31 25.5175 1198 24.5695 1198 23.3695C1198 22.2895 1198.3 21.3295 1198.9 20.4895C1199.52 19.6495 1200.36 19.0015 1201.42 18.5455C1202.47 18.0655 1203.66 17.8255 1204.98 17.8255C1207.14 17.8255 1208.89 18.3295 1210.24 19.3375C1211.6 20.3455 1212.36 21.7855 1212.5 23.6575H1209.55C1209.43 22.6975 1208.96 21.9055 1208.15 21.2815C1207.33 20.6575 1206.31 20.3455 1205.09 20.3455C1203.84 20.3455 1202.83 20.6095 1202.06 21.1375C1201.3 21.6415 1200.91 22.3135 1200.91 23.1535C1200.91 23.7775 1201.09 24.2575 1201.45 24.5935C1201.81 24.9295 1202.27 25.1575 1202.82 25.2775C1203.4 25.3975 1204.26 25.5295 1205.41 25.6735C1207.02 25.8655 1208.34 26.1295 1209.37 26.4655C1210.43 26.8015 1211.27 27.3415 1211.89 28.0855C1212.54 28.8295 1212.86 29.8375 1212.86 31.1095C1212.86 32.2135 1212.54 33.1855 1211.89 34.0255C1211.24 34.8655 1210.37 35.5135 1209.26 35.9695C1208.16 36.4255 1206.94 36.6535 1205.59 36.6535C1203.19 36.6535 1201.26 36.1015 1199.8 34.9975C1198.36 33.8935 1197.62 32.3575 1197.6 30.3895H1200.55Z" fill="#4C4D5D"/>
    </g>
    <defs>
        <clipPath id="clip0_9104_25249">
            <rect width="1596" height="1007" fill="white" transform="translate(0.264648 0.4375)"/>
        </clipPath>
    </defs>
</svg>