<svg width="114" height="17" viewBox="0 0 114 17" fill="none" xmlns="http://www.w3.org/2000/svg">
    <g clip-path="url(#clip0_10_3209)">
        <path d="M2.41489 3.62771V16.0998H0V1.6112C0 0.449314 1.32737 -0.213005 2.25573 0.485626L13.7265 9.11785C14.0801 9.38397 14.2881 9.80085 14.2881 10.2434V16.0998H11.8732V10.7455L2.41489 3.62771Z" fill="#1AAB9B"/>
        <path d="M41.3607 2.41528C40.4129 2.41528 39.6445 3.18364 39.6445 4.13149V14.982H41.8731V5.58129L44.8776 10.4842C45.2197 11.0424 45.8273 11.3827 46.4821 11.3827C47.1351 11.3827 47.7417 11.0439 48.0842 10.4878L51.1058 5.58129V14.982H53.3344V4.05178C53.3344 3.14796 52.6018 2.41528 51.6979 2.41528C51.1175 2.41528 50.5804 2.72274 50.2866 3.22333L46.5248 9.63165L42.8463 3.27219C42.5396 2.74186 41.9733 2.41528 41.3607 2.41528Z" fill="#1AAB9B"/>
        <path fill-rule="evenodd" clip-rule="evenodd" d="M63.6266 2.41528C62.8902 2.41528 62.2285 2.8649 61.9573 3.54952L57.4277 14.982H59.5854L60.9917 11.6922H66.1209L67.527 14.982H69.8176L65.2965 3.55052C65.0254 2.86538 64.3635 2.41528 63.6266 2.41528ZM63.5563 4.98878L65.3428 9.64934H61.7611L63.5563 4.98878Z" fill="#1AAB9B"/>
        <path d="M75.8484 8.17247L81.2837 2.71179C81.4727 2.52198 81.7294 2.41528 81.9973 2.41528C82.8952 2.41528 83.344 3.5019 82.7077 4.13547L78.3953 8.42893L84.7537 14.982H81.8619L75.8484 8.89764V14.982H73.6196V3.52958C73.6196 2.91416 74.1185 2.41528 74.7339 2.41528C75.3495 2.41528 75.8484 2.91416 75.8484 3.52958V8.17247Z" fill="#1AAB9B"/>
        <path d="M88.6968 12.9696C88.6968 14.0811 89.5977 14.982 90.7092 14.982H96.488C97.0545 14.982 97.5138 14.5228 97.5138 13.9562C97.5138 13.3896 97.0545 12.9303 96.488 12.9303H90.9342V9.53437H96.0016C96.5681 9.53437 97.0274 9.07508 97.0274 8.50852C97.0274 7.94195 96.5681 7.48266 96.0016 7.48266H90.9342V4.467H96.488C97.0545 4.467 97.5138 4.0077 97.5138 3.44113C97.5138 2.87458 97.0545 2.41528 96.488 2.41528H90.7092C89.5977 2.41528 88.6968 3.31626 88.6968 4.42769V12.9696Z" fill="#1AAB9B"/>
        <path fill-rule="evenodd" clip-rule="evenodd" d="M112.326 6.01462C112.326 6.41553 112.275 6.79876 112.175 7.16429C112.081 7.52393 111.928 7.87178 111.715 8.20783C111.509 8.5439 111.223 8.84457 110.857 9.10989C110.498 9.37519 110.07 9.58154 109.575 9.72893L113.369 14.982H110.468L106.949 10.1092H104.817V14.982H102.589V4.42769C102.589 3.31626 103.49 2.41528 104.601 2.41528H107.939C108.205 2.41528 108.446 2.42412 108.664 2.44181C108.888 2.4536 109.157 2.48898 109.469 2.54792C109.787 2.60099 110.068 2.67468 110.309 2.76902C110.557 2.86335 110.81 3.0019 111.07 3.18467C111.335 3.36744 111.553 3.58262 111.724 3.83025C111.901 4.07198 112.046 4.38151 112.157 4.75884C112.27 5.13027 112.326 5.54887 112.326 6.01462ZM104.817 4.45814V8.0575H106.869C107.223 8.0575 107.535 8.04571 107.806 8.02212C108.078 7.99854 108.358 7.95137 108.647 7.88063C108.936 7.80398 109.171 7.7008 109.354 7.5711C109.543 7.4414 109.696 7.26157 109.814 7.03163C109.938 6.8017 110 6.5305 110 6.21804C110 5.04478 109.095 4.45814 107.285 4.45814H104.817Z" fill="#1AAB9B"/>
        <path d="M27.9723 16.0998V3.62771L18.514 10.7455V16.0998H16.0991V10.2434C16.0991 9.80085 16.3071 9.38397 16.6608 9.11785L28.1315 0.485626C29.0599 -0.213005 30.3872 0.449314 30.3872 1.6112V16.0998H27.9723Z" fill="#1AAB9B"/>
    </g>
    <defs>
        <clipPath id="clip0_10_3209">
            <rect width="113.5" height="16.0993" fill="white" transform="translate(0 0.199951)"/>
        </clipPath>
    </defs>
</svg>